<svg width="800" height="600" xmlns="http://www.w3.org/2000/svg">
 <g>
  <title>background</title>
  <rect fill="#efefef" id="canvas_background" height="602" width="802" y="-1" x="-1"/>
 </g>

 <g>
  <title>Layer 1</title>
  <g id="Canada" stroke="null">
   <g id="CA-NT" stroke="null">
    <path id="svg_1" d="m147.012869,297.310733c-1.151471,-0.019678 -2.803021,0.188632 -5.173816,0.487866c-3.644402,0.458689 -7.028248,0.974374 -7.527648,1.166399c-0.65207,0.2497 -0.81424,1.266143 -0.572682,3.626082c0.390835,3.818785 -0.475652,4.8203 -2.077669,2.374866c-0.618822,-0.945197 -1.340104,-1.717368 -1.590482,-1.717368c-1.131115,0 -10.994275,17.850853 -12.934201,23.408719c-1.172506,3.35874 -2.577748,6.786011 -3.117182,7.612465c-1.559269,2.389794 -1.187433,3.067649 3.286815,6.106799c9.50218,6.454887 9.760023,7.102886 5.852349,15.118399c-1.364531,2.798949 -2.640851,6.365999 -2.819984,7.930696c-0.303983,2.651029 -0.142492,2.989618 2.311084,4.961435c1.448668,1.165042 2.504466,2.351796 2.332798,2.629317c-0.171669,0.278198 -0.400335,2.269693 -0.487866,4.431501c-0.169634,4.189943 -0.975731,5.569401 -3.710898,6.255398c-1.920927,0.482437 -2.989618,2.130595 -2.989618,4.622169c0,0.957411 -0.28227,1.738402 -0.614751,1.738402c-0.332481,0 -0.792527,0.79999 -1.038834,1.78115c-0.326374,1.300069 -0.080746,2.186235 0.932983,3.265102c0.968945,1.032049 1.395065,2.400651 1.399136,4.495283c0.003393,1.777758 0.672427,4.378575 1.632551,6.361249c1.120258,2.31312 1.519236,4.053558 1.272249,5.576865c-0.240879,1.484631 0.100422,3.098183 1.038834,4.898332c1.374709,2.637459 1.369959,2.737881 0.169634,6.700516c-1.625087,5.367877 -3.27053,14.33673 -3.710898,20.186364c-0.196775,2.613032 -0.541469,5.371269 -0.76335,6.127834c-0.257843,0.882093 0.126885,1.97996 1.059869,3.0534c1.80422,2.076991 2.89598,4.653381 4.02913,9.478431c1.019836,4.341934 2.326012,7.189738 4.282902,9.329832l1.399136,1.5267l-1.462918,1.568769c-0.973695,1.03612 -1.484631,2.434577 -1.484631,4.113268c0,1.399814 -0.327053,3.145001 -0.720603,3.880531c-0.64325,1.201682 -0.280913,1.536877 3.562299,3.286815c2.353153,1.072083 5.459478,2.754845 6.891184,3.731933c2.066133,1.410671 3.081898,1.681405 4.919366,1.336032c2.747382,-0.515007 2.553999,-1.210503 2.608282,9.796663l0.042069,8.375815l7.463865,3.011331c24.225673,9.787164 52.810243,19.527509 80.406191,27.39578c8.023656,2.288014 19.015894,5.490012 24.427198,7.124599s10.754753,3.153144 11.874332,3.350597c1.11958,0.197453 6.6157,1.279714 12.213598,2.416935c5.5979,1.138579 11.021416,2.214733 12.043966,2.395901c1.02255,0.182525 4.991291,0.961482 8.820933,1.717368c3.829642,0.756565 7.870985,1.522629 8.990565,1.717368c1.11958,0.195418 6.310359,1.232216 11.535065,2.29005c10.701827,2.166557 14.553181,2.480718 14.630534,1.208468c0.028498,-0.466831 0.164205,-1.41542 0.297197,-2.120416c0.132314,-0.704318 0.436976,-3.910387 0.678533,-7.124599c0.241558,-3.213534 0.563182,-6.6157 0.699568,-7.548682c0.137064,-0.932983 0.419333,-3.681043 0.636465,-6.106799c0.618144,-6.927146 1.686155,-17.989952 2.056634,-21.373798c0.122814,-1.118901 0.431547,-4.783659 0.678533,-8.1424c0.246986,-3.358061 0.561147,-6.564809 0.699568,-7.124599c0.138421,-0.559111 0.429512,-3.612511 0.657498,-6.785332c0.227987,-3.172143 0.716531,-8.292355 1.081582,-11.386466c0.36505,-3.094111 0.498043,-5.90731 0.297197,-6.234364c-0.202203,-0.325696 -4.714449,-2.857303 -10.0294,-5.639968c-11.24126,-5.885598 -22.770219,-11.98629 -31.340094,-16.581996l-6.043017,-3.244068l-4.17705,-6.785332l-4.17705,-6.785332l-7.675569,-1.632551l-7.675569,-1.654264l-6.57363,-8.863001c-3.617939,-4.882046 -9.32169,-12.701464 -12.680429,-17.36638s-9.994117,-13.775583 -14.737063,-20.250146c-4.742948,-6.473886 -9.09031,-12.496547 -9.669099,-13.379997c-0.981837,-1.49888 -0.890235,-2.025422 1.336032,-7.908984c8.3731,-22.126969 8.355459,-22.016369 4.134982,-27.544379c-1.278357,-1.673941 -2.332798,-3.305814 -2.332798,-3.626082c0,-0.319589 -0.333159,-0.572682 -0.742315,-0.572682s-1.553841,-0.573361 -2.5445,-1.272249c-0.990659,-0.698211 -3.023544,-1.41542 -4.516317,-1.590482c-2.321941,-0.271413 -3.115825,0.020356 -5.513083,1.971817c-2.418292,1.969782 -3.044579,2.17402 -4.580099,1.590482c-2.266301,-0.861737 -2.23441,-1.367923 0.233415,-3.731933c1.106688,-1.059869 1.806256,-2.26223 1.547735,-2.672064c-0.258521,-0.409156 -0.479723,-2.321262 -0.487866,-4.261867c-0.025106,-5.876776 -0.946554,-5.881526 -6.849114,0.021035c-2.857303,2.857982 -5.342092,5.194851 -5.513083,5.194851c-0.489223,0 -2.577748,-2.222197 -2.672064,-2.841697c-0.046819,-0.306018 -0.122814,-4.474249 -0.169634,-9.26605c-0.084138,-8.641121 -0.109244,-8.718474 -1.823897,-9.498787c-2.435256,-1.110081 -3.560942,-0.992694 -5.576865,0.593716c-1.302105,1.024585 -2.600818,1.360459 -5.004183,1.251216c-2.198448,-0.100422 -3.057471,-0.398978 -2.672064,-0.890235c0.313483,-0.400335 0.723317,-1.585054 0.911949,-2.629317c0.307375,-1.703118 0.012213,-2.060705 -2.798949,-3.477483c-3.142966,-1.585054 -8.107115,-1.925678 -12.298415,-0.869201c-0.932983,0.234773 -4.907152,0.602538 -8.820933,0.827132c-5.188065,0.297197 -7.252842,0.681247 -7.654534,1.399136c-0.302626,0.540791 -1.464953,0.975731 -2.565534,0.975731c-1.90125,0 -1.983353,-0.145885 -1.993531,-2.883766c-0.010178,-3.282065 -0.137064,-4.366362 -2.670028,-4.409787l0.000004,-0.000005l-0.000002,-0.000002zm56.212409,95.099829c17.646615,0.063782 19.062714,0.308733 19.062714,3.138216c0,0.662249 -1.450704,2.418971 -3.223033,3.922601c-2.148236,1.823219 -2.996403,2.961798 -2.5445,3.4137c0.805419,0.80474 10.159,4.583492 14.800168,5.979235c3.189107,0.960125 3.250853,1.046977 2.798949,3.159251c-0.498722,2.334833 -1.462239,3.859498 -2.438648,3.859498c-0.335195,0 -1.79947,0.790491 -3.265102,1.760115l-2.672064,1.760115l-3.922601,-1.823897c-2.164521,-1.002193 -4.515639,-2.128559 -5.216564,-2.50243c-1.698369,-0.905164 -2.674778,0.215095 -4.113268,4.664916c-1.36928,4.234726 -1.630516,4.457964 -6.976001,6.255398c-2.320584,0.780314 -4.534638,1.420848 -4.919366,1.420848c-1.274964,0 -0.72196,-1.958926 1.187433,-4.219798c3.972133,-4.702235 3.923958,-4.601134 1.632551,-4.601134c-1.227467,0 -2.887837,0.70771 -4.113268,1.738402c-3.341098,2.811842 -5.886276,3.225747 -8.948497,1.462918c-1.431027,-0.823739 -2.946191,-2.268336 -3.371632,-3.201998c-0.722638,-1.585732 -0.473616,-1.981996 4.007418,-6.255398c2.637459,-2.514645 6.152261,-5.224706 7.803132,-6.000949c1.650871,-0.775563 3.147037,-1.974531 3.328884,-2.672064c0.512292,-1.958926 -2.195734,-4.065093 -5.322414,-4.134982c-1.469024,-0.032569 -4.62624,-0.719924 -7.018748,-1.5267c-3.571799,-1.204396 -4.400288,-1.764186 -4.601134,-3.117182c-0.13435,-0.905842 0.088209,-1.851717 0.487866,-2.099382c0.400335,-0.243593 8.30389,-0.412548 17.557727,-0.3793l-0.000001,0.000001l-0.000001,0zm23.07013,87.255305c0.278877,0 1.525343,1.403207 2.756202,3.117182c1.230859,1.713975 3.306493,4.081377 4.622169,5.258632c3.650508,3.267137 6.334108,6.311716 8.014835,9.096417c1.338746,2.218804 2.05867,2.646958 6.021982,3.647116c4.204192,1.061226 4.779588,1.068011 8.481666,0.021035c2.679527,-0.757243 4.452535,-1.741794 5.449301,-3.011331c2.062741,-2.623888 4.605884,-3.762467 8.884715,-4.007418c3.639652,-0.20831 3.669508,-0.186596 3.541265,1.675299c-0.186596,2.712776 -2.868839,5.750569 -5.809602,6.594665c-1.399136,0.401692 -3.841177,1.991495 -5.428266,3.520231c-1.587089,1.529414 -4.868476,3.668829 -7.294233,4.770768s-5.572115,2.619817 -6.997035,3.371632c-1.495487,0.789134 -3.313278,1.228824 -4.304615,1.038834c-1.220003,-0.233415 -2.34094,0.215773 -3.859498,1.547735c-1.174541,1.032049 -3.32142,2.363332 -4.770768,2.968583c-1.450025,0.605931 -3.434735,1.041549 -4.410466,0.954018c-12.526402,-1.122294 -13.707729,-1.551806 -19.698499,-7.124599c-5.395697,-5.018432 -5.343449,-6.297468 0.297197,-6.297468c2.088525,0 4.388754,0.313483 5.110034,0.699568c1.540271,0.824418 3.387238,0.046141 6.255398,-2.629317c1.492773,-1.393029 2.434577,-1.704475 4.601134,-1.547735c3.114467,0.225273 4.707663,-0.759279 4.707663,-2.925836c0,-2.017958 -2.762309,-9.975117 -5.216564,-15.012549c-1.857145,-3.813357 -2.179449,-5.725463 -0.954018,-5.725463l0.000001,-0.000001l0.000002,0.000002z" fill="#D3D3D3" stroke="null"/>
    <path id="svg_2" d="m298.622983,349.374589c-4.851512,-1.413385 -12.485012,-3.66408 -16.963331,-5.002147s-10.585119,-3.12261 -13.570666,-3.96467c-5.103927,-1.441205 -5.286452,-1.555198 -3.0534,-1.915499c1.306177,-0.211024 5.733606,-0.250379 9.838732,-0.088209c6.048445,0.238844 8.052154,0.591002 10.565441,1.857145c3.114467,1.568769 11.402752,4.008096 11.906223,3.504624c0.14792,-0.148599 -1.553841,-2.008458 -3.782144,-4.133625c-4.238797,-4.04338 -7.518827,-5.842171 -10.695042,-5.865242c-2.412186,-0.016964 -13.095691,-2.802343 -17.419985,-4.540745c-3.14568,-1.264786 -3.383167,-1.542985 -4.569922,-5.344806c-0.688711,-2.205911 -1.256644,-4.379253 -1.261393,-4.8298c-0.008821,-0.738244 3.166036,-1.86461 12.203421,-4.3304l3.0534,-0.83256l-2.374866,-0.547577c-1.306177,-0.301268 -3.241353,-0.625607 -4.300544,-0.720603c-2.066812,-0.185239 -4.255082,-3.246782 -3.579941,-5.007576c0.198132,-0.516364 -0.015607,-1.17522 -0.475652,-1.465632c-0.460046,-0.289734 -1.383529,-1.386243 -2.051206,-2.435934c-1.601339,-2.51668 -1.016443,-5.009611 1.903286,-8.103722c2.689706,-2.851875 3.755003,-4.679165 3.755003,-6.439281c0,-3.447628 10.064684,-8.936283 20.115119,-10.96849c3.678328,-0.744351 8.10033,-1.539592 9.827876,-1.768257c3.02083,-0.399656 3.168072,-0.33791 3.843891,1.599982c0.843417,2.418971 0.094994,6.315787 -1.977246,10.291314c-0.793884,1.522629 -1.260036,2.95162 -1.036798,3.174178c0.222559,0.223238 1.792006,-0.729423 3.485626,-2.117702l3.079862,-2.524144l4.231333,2.420328c2.327369,1.330603 4.972292,3.050007 5.877455,3.820821l1.6468,1.400493l-1.378101,3.263066l-1.37878,3.262388l2.785379,-0.623572c1.532128,-0.34266 2.989618,-0.833917 3.23796,-1.093117c0.249022,-0.258521 -0.001357,-1.796756 -0.556397,-3.41913c-0.554362,-1.622373 -0.91127,-3.011331 -0.791848,-3.089362c2.881731,-1.85511 3.935493,-2.33619 4.195371,-1.916178c0.369801,0.599823 -14.377441,59.995911 -15.055296,60.632375c-0.252415,0.238165 -4.428108,-0.724674 -9.279621,-2.138737l0,0.000002l0.000001,0.000001z" fill="#D3D3D3" stroke="null"/>
    <path id="svg_3" d="m231.48958,305.186468c-0.170991,-0.506864 -0.616108,-3.554836 -0.98998,-6.773798c-0.618144,-5.335986 -1.010336,-6.406032 -4.445072,-12.130818c-2.072241,-3.452378 -3.760431,-6.621128 -3.751611,-7.039783c0.021035,-1.058512 2.031528,-3.355347 4.056272,-4.633704c0.932983,-0.588967 3.372989,-3.774681 5.422159,-7.081173c2.049171,-3.305136 4.30258,-6.620449 5.007576,-7.366157c0.704996,-0.747065 3.532444,-4.356183 6.282539,-8.02162c4.784338,-6.375498 5.004183,-6.830794 5.080857,-10.517266c0.044105,-2.119738 0.024427,-4.264581 -0.044784,-4.768054c-0.166241,-1.215253 1.920249,-3.472054 2.912264,-3.148394c0.431547,0.140457 1.914142,0.389478 3.294279,0.553005c1.380137,0.164205 4.128197,0.93909 6.106799,1.722796c1.977924,0.783706 4.873226,1.741116 6.431817,2.127881c2.31787,0.574718 2.973332,1.103295 3.588762,2.895302c0.413905,1.205753 2.398615,3.857462 4.410466,5.892383c3.640331,3.683757 3.674936,3.700042 7.607036,3.596227c5.538867,-0.146563 6.292718,0.681926 9.449933,10.374774c4.013524,12.320807 3.48359,13.57338 -6.794832,16.058168c-4.722591,1.141972 -9.409899,3.184357 -10.579691,4.610633c-0.186596,0.227309 -1.271571,0.789813 -2.410828,1.249859c-1.139936,0.460046 -2.820663,1.512451 -3.736004,2.33619c-0.915341,0.825096 -3.715648,3.026937 -6.223507,4.892904c-3.637617,2.70599 -5.050323,4.316828 -6.9855,7.966659c-1.333996,2.516002 -3.096826,4.933615 -3.917851,5.373305s-1.492773,0.706353 -1.492773,0.593038c0,-0.188632 -0.817633,-0.039355 -5.767533,1.051727c-0.932983,0.206274 -4.059664,0.539434 -6.948181,0.740958c-4.06645,0.284306 -5.321057,0.158776 -5.562616,-0.55504l-0.000001,0l0.000005,-0.000002z" fill="#D3D3D3" stroke="null"/>
    <path id="svg_4" d="m310.240151,254.340579c-1.724832,-1.894465 -3.135502,-3.997239 -3.135502,-4.671701c0,-1.680727 2.678849,-3.2936 6.946145,-4.181801c6.865399,-1.428991 8.875894,-3.647116 3.305814,-3.647116c-2.255445,0 -3.135502,-0.357587 -4.132268,-1.678691c-1.217967,-1.614231 -1.317033,-1.63323 -2.588604,-0.482437c-1.611517,1.458847 -5.517154,1.927035 -7.405512,0.888878c-1.977924,-1.087689 -8.286248,-8.610587 -8.771399,-10.459591c-0.440368,-1.681405 1.308891,-4.213013 2.912264,-4.213013c0.501436,0 0.935697,-0.228666 0.964196,-0.5089c0.21713,-2.125844 0.759957,-3.287494 2.275801,-4.869155c0.958768,-1.001515 1.74383,-2.421007 1.74383,-3.15518c0,-1.80897 3.872389,-6.393819 5.399768,-6.393819c0.675819,0 1.729581,-0.76335 2.34094,-1.696333c0.932305,-1.422884 1.641372,-1.696333 4.396896,-1.696333c4.352112,0 6.86065,1.875466 6.86065,5.128355c0,1.932463 0.429512,2.600818 2.593354,4.032523c3.473411,2.29887 5.08832,5.74107 5.215207,11.119124c0.111958,4.758554 1.109402,6.173295 4.365683,6.192973c3.343812,0.020356 3.40013,0.480401 1.178612,9.658921c-1.528735,6.318501 -2.368081,8.651299 -3.11311,8.651299c-0.561147,0 -2.76163,1.22136 -4.889511,2.714133c-3.616582,2.536357 -4.178407,2.714133 -8.599052,2.714133l-4.730055,0l-3.134145,-3.44627l-0.000001,-0.000001l-0.000001,0.000002z" fill="#D3D3D3" stroke="null"/>
    <path id="svg_5" d="m289.312149,224.073245c-0.645285,-0.169634 -1.479202,-1.424242 -1.863931,-2.805057c-0.939769,-3.37706 0.474295,-5.194172 5.692215,-7.313231c4.531245,-1.840182 6.036232,-2.008458 7.003142,-0.783028c1.236966,1.56809 0.64325,3.333634 -1.731617,5.150068c-1.297355,0.992694 -3.447628,2.796914 -4.778231,4.010132c-1.329925,1.213217 -2.583855,2.169949 -2.785379,2.126523c-0.202203,-0.042747 -0.892949,-0.216452 -1.536199,-0.385407z" fill="#D3D3D3" stroke="null"/>
    <path id="svg_6" d="m283.064893,212.614854c-0.586253,-0.586931 -1.065975,-1.808291 -1.065975,-2.714133c0,-1.545021 -0.232737,-1.648157 -3.731933,-1.648157c-6.029447,0 -7.974802,-2.962476 -4.919366,-7.490328c1.116866,-1.654942 2.349082,-2.471896 4.590277,-3.042543c1.684119,-0.428833 4.529209,-1.599303 6.321216,-2.60014s3.516159,-1.660371 3.829642,-1.466989s2.769772,-1.709225 5.457443,-4.228619c6.232328,-5.842171 7.271163,-6.365999 12.395446,-6.252684c2.319227,0.051569 4.980434,-0.043426 5.913418,-0.211024c2.011173,-0.360979 5.091714,1.042906 5.68543,2.59064c1.302105,3.392667 -0.120779,7.168025 -3.390631,8.99803c-0.727388,0.40712 -1.235609,1.840182 -1.45274,4.096306c-0.312126,3.249496 -0.521792,3.579941 -3.289529,5.202314c-1.625765,0.95266 -3.266459,2.312442 -3.646437,3.022187c-0.901771,1.685476 -3.211498,2.387758 -4.455928,1.355031c-1.49888,-1.243751 -1.262072,-5.855742 0.371837,-7.254877c0.746386,-0.639179 1.357066,-1.396422 1.357066,-1.682762c0,-0.825096 -2.490896,1.366566 -9.224659,8.116615c-6.531561,6.547846 -8.468095,7.487614 -10.744574,5.211136l-0.000001,-0.000001l-0.000002,-0.000002z" fill="#D3D3D3" stroke="null"/>
    <path id="svg_7" d="m303.323905,149.425035c-0.49165,-0.220165 -0.663682,-0.416946 -0.934864,-1.069392c-0.182661,-0.439873 -0.332221,-0.892501 -0.332221,-1.005924s-0.140601,-0.292135 -0.31233,-0.397359c-0.817949,-0.500457 -1.164594,-1.937144 -0.467508,-1.937144c0.310508,0 0.779838,0.451565 0.779838,0.750381c0,0.141361 0.135895,0.164744 0.493472,0.085181c0.642728,-0.143031 3.272859,-0.272093 3.530679,-0.173247c0.155178,0.05952 0.16611,0.221987 0.048892,0.732009c-0.082904,0.360462 -0.177498,0.791985 -0.210295,0.959006c-0.225631,1.151384 -0.432282,1.754939 -0.675981,1.975407c-0.399333,0.361525 -1.216523,0.395841 -1.919682,0.081081l0,0z" fill="#D3D3D3" stroke="null"/>
    <path id="svg_8" d="m347.816644,174.408682c0,-0.327731 -0.893628,-0.966231 -1.986746,-1.418813s-2.524822,-1.416777 -3.181642,-2.143486c-0.861058,-0.951303 -1.710582,-1.207789 -3.037794,-0.91602c-1.013729,0.222559 -2.036956,0.090245 -2.275122,-0.294483c-1.040191,-1.682762 4.075949,-6.170581 5.811637,-5.098499c0.360979,0.223916 1.104652,0.034605 1.652228,-0.419333c0.858344,-0.71246 6.063374,-0.601859 6.722229,0.142492c0.58761,0.662927 -2.074276,10.743895 -2.836948,10.743895c-0.477009,0.000679 -0.867844,-0.268021 -0.867844,-0.595752l0.000002,-0.000001z" fill="#D3D3D3" stroke="null"/>
   </g>
   <g id="CA-NU" stroke="null">
    <path id="svg_9" d="m350.870044,388.792622c-3.326848,-0.800669 -8.322889,-3.6919 -11.913687,-6.895933c-1.083618,-0.966231 -3.19657,-2.309727 -4.696807,-2.986225c-1.500915,-0.676498 -2.76638,-1.642051 -2.813199,-2.144844s-0.123493,-1.296677 -0.169634,-1.763508c-0.151991,-1.515165 -2.978083,-1.403207 -3.467305,0.137743c-0.637143,2.009137 -4.062378,3.550086 -8.773435,3.947028c-2.240516,0.188632 -4.464749,0.734173 -4.943115,1.212539c-2.014566,2.014566 -5.708501,2.507859 -15.393884,2.054599c-14.418153,-0.674462 -18.697662,-1.418813 -18.770944,-3.264423c-0.018999,-0.475652 -0.159455,-2.08649 -0.312804,-3.579263c-0.153348,-1.492095 -0.417298,-4.511568 -0.58761,-6.710016c-0.356908,-4.607241 -1.588446,-6.247256 -5.156853,-6.864721c-4.047451,-0.700925 -12.228527,-6.443352 -12.228527,-8.582768c0,-0.31484 -0.050212,-0.802026 -0.11128,-1.082261c-0.061068,-0.279556 -0.664284,-2.95162 -1.340104,-5.937166c-0.675141,-2.984868 -1.235609,-5.635897 -1.245787,-5.88899c-0.018999,-0.514329 0.135029,-0.470902 29.40356,8.226537c11.516067,3.422522 21.04403,6.116978 21.172952,5.988056c0.128921,-0.128921 3.625404,-13.810866 7.768527,-30.404396c4.143802,-16.592174 7.687782,-30.624242 7.875735,-31.180639c0.187275,-0.556397 1.557912,2.038314 3.044579,5.767533c2.628638,6.590594 2.696491,6.964465 2.418971,13.382711c-0.335195,7.759707 0.417976,9.824483 2.737881,7.505935c1.169791,-1.169791 1.333996,-2.085133 1.148078,-6.379569c-0.119422,-2.757559 -0.357587,-8.800576 -0.529934,-13.428173l-0.312804,-8.413813l2.151629,-2.253409c2.008458,-2.103453 2.328726,-2.212697 4.80198,-1.641372c1.533485,0.353516 3.337027,1.418134 4.278831,2.524822c1.57284,1.849003 1.591839,1.852396 0.548934,0.130278c-0.593038,-0.979802 -1.340782,-2.696491 -1.660371,-3.812c-0.825775,-2.877659 1.335354,-5.329201 5.378733,-6.100693c3.626761,-0.692783 6.306967,0.550969 9.109988,4.225905c2.554678,3.349919 1.899893,6.174652 -2.771808,11.956435l-3.721755,4.605884l0.159455,8.502022c0.178454,9.525929 0.805419,15.102793 2.142129,19.074248c0.830524,2.46579 0.770814,2.983511 -0.728066,6.311038c-1.183362,2.62796 -1.523307,4.298509 -1.235609,6.070159c0.605931,3.735325 4.867119,9.306762 11.096054,14.509756c7.180239,5.996877 9.715918,10.576977 8.22518,14.85445c-0.704996,2.021351 -0.747744,2.036956 -4.538031,1.61016c-2.10481,-0.236808 -4.116661,-0.705675 -4.471534,-1.041549c-0.354194,-0.336552 -1.0083,-0.612037 -1.454097,-0.612037c-1.782507,0 -1.486667,2.238481 0.757922,5.747855c3.740075,5.846921 2.985547,9.500144 -2.494288,12.083999c-2.580462,1.215931 -4.93158,1.367245 -8.377851,0.538077l0.000001,-0.000002l0.000004,0.000001z" fill="#D3D3D3" stroke="null"/>
    <path id="svg_10" d="m397.971787,567.612599c-0.155384,-0.143849 -2.725668,-0.478366 -5.710536,-0.742994c-2.98419,-0.263949 -5.580257,-0.56861 -5.767533,-0.677176c-0.186596,-0.108566 -2.782665,-0.413905 -5.767533,-0.678533c-2.98419,-0.265306 -5.580257,-0.56861 -5.767533,-0.675141c-0.186596,-0.105852 -2.324655,-0.392192 -4.750411,-0.635107c-2.425757,-0.242915 -5.784496,-0.595073 -7.463865,-0.783028c-6.383641,-0.713817 -8.705582,-0.955375 -16.284798,-1.69769c-7.887271,-0.772171 -9.072668,-1.030692 -8.560376,-1.867324c0.155384,-0.25445 0.498722,-3.362811 0.762671,-6.908826c0.263949,-3.545336 0.565896,-6.904076 0.67107,-7.463865c0.105173,-0.559111 0.392192,-3.612511 0.637143,-6.785332c0.24495,-3.172143 0.572004,-6.530883 0.726031,-7.463865s0.453938,-3.833035 0.665641,-6.446066c0.460724,-5.678645 0.953339,-11.103518 1.3876,-15.266998c0.17574,-1.67937 0.457332,-4.580099 0.626286,-6.446066c1.106688,-12.221741 1.383529,-15.097365 2.091918,-21.713064c0.240201,-2.239159 0.484473,-4.770089 0.544184,-5.624362c0.089566,-1.287178 -0.822382,-2.049171 -5.320379,-4.438964c-6.872863,-3.653224 -19.447442,-10.297421 -29.516197,-15.59473c-4.291723,-2.258159 -9.024493,-4.772125 -10.517266,-5.586364c-2.623888,-1.431705 -4.025738,-3.197249 -9.231445,-11.629381l-2.445434,-3.961956l-7.74885,-1.625765l-7.74885,-1.625765l-3.774002,-5.150746c-2.076312,-2.832877 -9.990724,-13.699586 -17.587583,-24.149677c-7.597537,-10.448733 -15.585909,-21.418581 -17.752465,-24.377664c-2.165878,-2.957727 -3.941599,-5.706465 -3.943635,-6.106799c-0.00475,-0.660213 8.767328,-24.849923 9.203625,-25.379858c0.81424,-0.989302 7.38787,4.939722 10.056542,9.072668c1.800827,2.787415 6.779226,6.999749 10.005651,8.464703c1.363852,0.619501 2.127202,0.622893 3.265102,0.01357c1.295998,-0.692783 1.865967,-0.483115 4.462713,1.644765c1.637979,1.342139 3.561621,3.271209 4.275438,4.287652c1.602696,2.281229 4.197407,8.121365 4.197407,9.44654c0,1.745187 -1.742473,2.78945 -5.436408,3.258995c-3.692578,0.468188 -6.77719,1.951462 -6.77719,3.258317c0,0.400335 0.672427,1.709904 1.494809,2.910229c1.271571,1.854431 2.516002,2.492931 8.312032,4.257796c10.713361,3.263066 12.766603,3.587405 17.69479,2.800306c2.408793,-0.38405 5.188065,-1.068011 6.178046,-1.518558c1.616945,-0.736887 1.908714,-0.65207 2.888516,0.84206c0.599823,0.914663 2.922443,4.069164 5.160924,7.011284c5.292559,6.95293 7.040461,10.348311 6.677446,12.968806c-0.21713,1.567411 -0.118743,1.824576 0.405763,1.055798c0.429512,-0.631036 0.537398,-3.647116 0.283627,-7.934768l-0.409834,-6.916968l7.164632,-3.562978c4.114625,-2.046457 7.294233,-4.058986 7.469294,-4.729377c0.28702,-1.096509 0.135707,-1.094474 -2.500395,0.030534c-1.542307,0.658855 -4.409787,1.606767 -6.371427,2.106846c-3.322099,0.847488 -3.693935,0.81424 -5.428266,-0.480401c-4.581456,-3.420487 -0.717209,-9.902515 6.170581,-10.348989c1.432384,-0.092959 4.180443,-0.685318 6.106799,-1.316355c1.927035,-0.631036 4.348719,-1.042227 5.383483,-0.913984c2.243231,0.278198 4.093592,2.811163 4.244904,5.809602c0.059032,1.173184 0.637822,3.158573 1.286499,4.411823c1.690227,3.265102 6.870828,8.22518 8.685226,8.317461c0.849524,0.042069 1.85036,0.149277 2.222875,0.23613c0.373194,0.086174 1.024585,0.204239 1.447311,0.261235c0.422726,0.056318 2.033564,2.0451 3.579941,4.418609l2.811842,4.315471l4.152624,0.434261c2.283943,0.239522 6.170581,0.434261 8.636371,0.434261c2.465111,0 6.617735,0.61068 9.228053,1.357066c2.610317,0.747065 4.74634,1.357066 4.747697,1.357066s0.063103,-1.113473 0.137743,-2.473932c0.074639,-1.360459 0.608645,-3.657295 1.187433,-5.10257c0.578789,-1.445954 1.051727,-3.427272 1.051727,-4.403002c0,-1.719404 0.098387,-1.762151 3.12261,-1.346889c3.882567,0.53197 8.073189,1.936534 12.674323,4.247618c1.948069,0.978445 3.647116,1.87343 3.775359,1.988103c0.185239,0.165562 -2.286657,9.435684 -3.661366,13.728763c-0.154027,0.478366 0.441047,1.144007 1.321104,1.478524c0.884807,0.336552 1.984032,1.616266 2.458326,2.862054l0.858344,2.253409l0.460724,-2.035599c0.297197,-1.310248 0.091602,-2.760273 -0.576075,-4.0712c-0.616108,-1.209146 -1.049013,-3.90428 -1.065975,-6.638769c-0.030534,-4.873226 0.650035,-6.052516 3.119896,-5.407231c2.420328,0.63375 7.196523,-1.790649 9.380044,-4.758554c1.720082,-2.338904 2.059348,-3.4327 2.059348,-6.633341c0,-2.970618 -0.304661,-4.108519 -1.357066,-5.060501c-1.560626,-1.412028 -1.893108,-6.317144 -0.521792,-7.68846c1.160292,-1.160292 -3.015402,-4.925473 -6.877613,-6.199758c-2.332119,-0.769456 -3.368239,-1.685476 -5.270168,-4.65881c-2.020672,-3.158573 -2.364689,-4.281545 -2.349082,-7.652498c0.010856,-2.173342 0.340624,-4.551601 0.732816,-5.285095c0.557076,-1.04087 0.313483,-2.258837 -1.108724,-5.536832l-1.82254,-4.202835l1.313641,-3.807929c1.108045,-3.210819 1.761472,-4.054236 4.16823,-5.37534c2.613032,-1.435098 2.791486,-1.703118 2.121095,-3.175535c-0.631715,-1.385565 -0.416619,-1.997602 1.556555,-4.43625c5.313594,-6.566167 4.826407,-6.185509 7.283376,-5.686787c1.584375,0.322303 2.515323,1.016443 3.0534,2.277837c0.42544,0.998122 1.922964,2.819984 3.328205,4.050843c4.622848,4.047451 5.280346,5.477799 5.542938,12.069071c0.23138,5.80146 0.335195,6.131227 3.702077,11.729126c4.236761,7.044532 4.698164,10.863317 1.149435,9.513715c-1.371994,-0.521792 -1.474453,-0.396942 -1.201004,1.466989c0.164205,1.11958 -0.107209,3.266459 -0.603895,4.770768c-0.846131,2.56282 -0.808812,2.809806 0.597787,3.948385c1.245787,1.0083 1.922964,1.097188 4.000632,0.523828c2.598104,-0.717888 4.879332,-0.292448 10.074861,1.878859c2.151629,0.898378 2.390473,1.197611 1.589125,1.97996c-0.519757,0.507543 -2.318548,1.114152 -3.997918,1.347567c-4.778231,0.665641 -5.126998,1.789971 -1.975888,6.381606c2.49361,3.632867 3.049329,5.473728 3.296993,10.927099c0.130956,2.885123 1.194219,0.122814 1.697012,-4.410466c0.783028,-7.05471 1.700404,-9.215839 4.388075,-10.338811l2.387758,-0.997444l4.557708,4.989933c3.18775,3.489697 4.775517,5.844885 5.281703,7.835023c1.082261,4.257118 0.886843,6.829437 -0.634429,8.350709c-0.746386,0.747065 -1.357066,2.227625 -1.357066,3.292243c0,1.981996 1.247823,6.279147 1.998959,6.885756c0.23138,0.186596 1.434419,1.94264 2.673421,3.901566c1.23968,1.959604 2.459683,3.562299 2.71074,3.562299c1.049691,0 3.600976,-2.283265 4.141767,-3.707505c0.321625,-0.844774 0.767421,-3.332956 0.990659,-5.529367c0.223916,-2.196412 0.84206,-4.909866 1.37403,-6.030126c0.53197,-1.118901 1.584375,-4.189265 2.338226,-6.821295c0.753851,-2.632709 2.290728,-6.144118 3.415057,-7.803132c2.425078,-3.579941 2.562141,-5.118176 0.6385,-7.165989c-1.616266,-1.720761 -3.581298,-9.869266 -2.912264,-12.073143c0.880058,-2.89598 2.338904,-3.795715 6.156332,-3.795715c2.743989,0 4.578064,0.500757 7.454366,2.035599c2.098025,1.11958 4.42268,2.035599 5.164995,2.035599c0.743672,0 2.329404,1.036798 3.523623,2.304299s3.499874,2.980797 5.122248,3.807929c2.856625,1.45749 5.349556,3.771967 5.395697,5.009611c0.012892,0.331802 -0.479723,0.970981 -1.093795,1.42017c-1.024585,0.749101 -0.999479,0.979123 0.301947,2.788772c0.780992,1.084975 1.615588,3.077827 1.854431,4.429465c0.403728,2.279872 0.287698,2.508538 -1.606767,3.169429c-1.122972,0.391513 -2.38233,1.346889 -2.797592,2.122452c-0.414584,0.776242 -1.354352,1.410671 -2.087847,1.410671c-1.800148,0 -1.676656,1.29532 0.350123,3.651866c0.924841,1.075476 1.871395,2.96519 2.102775,4.199442c0.280235,1.492773 1.162328,2.75281 2.635423,3.761788c4.806051,3.2936 4.808765,10.102681 0.008142,18.306149c-5.684752,9.714561 -6.078979,10.144751 -9.032635,9.857053c-1.439169,-0.139778 -3.425915,-0.784385 -4.414537,-1.431705l-1.797434,-1.177934l1.065297,2.549928c1.183362,2.83152 0.443082,4.044737 -2.00303,3.282744c-2.517359,-0.784385 -3.495803,-0.745708 -4.560422,0.182525c-0.923484,0.805419 -1.418813,0.800669 -3.392667,-0.033248c-1.270892,-0.536041 -2.768415,-1.623051 -3.328205,-2.4149c-0.859023,-1.213896 -1.442562,-1.36928 -3.731933,-0.990659c-1.492773,0.246307 -3.254924,0.732137 -3.915815,1.079547c-1.076154,0.565218 -0.944518,0.87463 1.251894,2.946191c2.296835,2.1652 2.423043,2.498359 1.971139,5.170423c-0.348088,2.059348 -1.497523,4.052879 -4.120054,7.144277c-2.000994,2.35926 -3.830999,5.055751 -4.065772,5.993484c-0.235451,0.938412 -0.77692,1.707189 -1.202361,1.708547c-0.426119,0.002036 0.094316,0.698889 1.15622,1.548413c1.630516,1.305498 1.898536,1.963675 1.722796,4.23744c-0.113994,1.481238 -0.696854,3.45577 -1.295998,4.388754s-1.695655,2.613032 -2.43797,3.731933c-0.742315,1.11958 -2.706669,4.396217 -4.366362,7.279983c-3.434735,5.969736 -4.546851,6.629948 -11.155765,6.629948c-4.856263,0 -6.213329,0.981159 -6.566845,4.749733c-0.219166,2.336869 -0.271413,2.374188 -3.275959,2.332798c-1.67937,-0.02307 -3.887996,-0.23138 -4.907831,-0.462081c-2.718883,-0.61543 -2.897337,0.515007 -0.358265,2.268336c1.217289,0.840025 2.328726,1.614909 2.469182,1.720761c0.709746,0.534684 0.787099,5.917489 0.114672,7.956481c-0.8977,2.719562 -3.41913,4.02913 -8.132221,4.225227c-5.327844,0.220524 -5.073393,0.103816 -3.936171,1.805577c0.960803,1.43849 0.877344,1.665799 -1.443919,3.924637c-3.438806,3.347204 -7.407548,8.580053 -9.245016,12.190529c-0.854952,1.680048 -2.228982,3.663401 -3.054078,4.409109c-1.789292,1.616945 -3.396738,4.559743 -3.396738,6.2174c0,0.657498 -1.580304,4.538031 -3.51141,8.623479c-2.947548,6.235721 -3.499196,8.012121 -3.437449,11.053307l0.072603,3.623368l-2.895302,0c-1.590482,-0.001357 -3.02083,-0.119422 -3.175535,-0.263949l0.000003,-0.000006l-0.000001,-0.000004z" fill="#D3D3D3" stroke="null"/>
    <path id="svg_11" d="m534.994792,530.085639c-3.615225,-2.243231 -3.468662,-8.871822 0.286341,-12.936237c1.523986,-1.650193 3.248817,-1.534842 5.408588,0.360979c2.173342,1.908714 1.100581,9.774271 -1.687513,12.371697c-1.733652,1.614909 -1.733652,1.614909 -4.007418,0.20356l0.000001,0.000001l0.000001,0z" fill="#D3D3D3" stroke="null"/>
    <path id="svg_12" d="m499.850162,522.49353c-1.574876,-2.944155 0.650713,-9.622959 3.95992,-11.879082c2.651029,-1.807613 3.396059,-1.967068 8.637728,-1.849682c3.191821,0.071246 3.548729,0.24495 4.318185,2.102775c0.764028,1.843575 0.647999,2.322619 -1.296677,5.352949c-2.828126,4.406395 -6.858614,7.039104 -11.355254,7.415012c-3.028972,0.253772 -3.597584,0.101101 -4.263903,-1.141972l0.000001,0.000001l0,-0.000001z" fill="#D3D3D3" stroke="null"/>
    <path id="svg_13" d="m336.637676,219.602996c-0.20741,-0.045248 -0.265716,-0.215458 -0.265716,-0.775586c0,-0.394778 -0.081992,-0.799729 -0.182205,-0.899941s-0.561344,-0.188886 -1.024904,-0.197389c-1.792594,-0.03219 -2.071216,-0.419223 -1.076832,-1.496208c0.571517,-0.61889 0.672033,-0.89159 0.646373,-1.753117c-0.088673,-2.983153 0.001215,-3.930923 0.592926,-6.252671c0.184786,-0.725176 0.241877,-0.794262 0.732465,-0.886276c0.462801,-0.086851 0.577135,-0.043729 0.877166,0.331006c0.189797,0.237018 0.464927,0.720925 0.611146,1.075617c0.227756,0.551626 0.332069,0.645917 0.721684,0.653509c0.300487,0.00577 0.895082,0.315367 1.746132,0.909355c0.709841,0.495294 1.71622,1.192077 2.236416,1.547984c0.520196,0.356211 0.947466,0.750078 0.949744,0.875344c0.002278,0.125266 0.172336,0.501216 0.377924,0.835107c0.20574,0.334043 0.376405,0.727606 0.378835,0.874433c0.0041,0.23216 0.108868,0.255239 0.801854,0.175676c0.71637,-0.082144 0.854086,-0.047525 1.358035,0.340268c0.487095,0.375039 0.553903,0.501519 0.508808,0.963106c-0.076982,0.784089 -0.181598,0.953995 -0.806561,1.308081c-0.566506,0.320985 -0.56681,0.320985 -1.249927,0.025357c-0.438963,-0.189949 -0.882632,-0.269664 -1.241272,-0.223201c-0.442606,0.057546 -0.625115,0.000911 -0.883543,-0.274219c-0.179168,-0.190708 -0.303827,-0.468115 -0.277104,-0.616612c0.071364,-0.397055 -1.297148,-1.096419 -1.620259,-0.828122c-0.126025,0.104616 -0.229275,0.348315 -0.229275,0.541301c0,0.540238 -0.275889,1.144855 -0.728213,1.595813c-0.225782,0.225175 -0.562558,0.610539 -0.748256,0.856516c-0.476466,0.630582 -1.068633,1.255697 -1.211512,1.278472c-0.381264,0.061191 -0.760403,0.067416 -0.993929,0.016399l0,0l0,0z" fill="#D3D3D3" stroke="null"/>
    <path id="svg_14" d="m395.581992,400.722594c-2.274444,-0.739601 -5.175173,-2.658494 -8.071831,-5.339378c-1.11958,-1.03612 -2.294121,-1.885644 -2.609639,-1.887679c-1.342818,-0.007464 -4.51496,-2.918371 -4.51496,-4.141767c0,-1.705154 10.757467,-16.216945 12.022252,-16.216945c1.703797,0 7.950374,6.57838 9.7702,10.289279c2.755524,5.617577 4.670344,10.929136 4.670344,12.954557c0,1.385565 -0.646642,2.27105 -2.606925,3.568407c-2.683599,1.775043 -4.953293,1.978603 -8.659441,0.773528l0,-0.000001l0,-0.000001z" fill="#D3D3D3" stroke="null"/>
    <path id="svg_15" d="m647.555997,503.016233c-0.125528,-0.125528 -4.426751,-0.407799 -9.559855,-0.627643c-7.345122,-0.31484 -9.634493,-0.645285 -10.753396,-1.552484c-0.781671,-0.635107 -2.389794,-1.974531 -3.573835,-2.978761c-1.804899,-1.532128 -2.691063,-1.795399 -5.500191,-1.632551c-3.704113,0.212381 -5.916132,-0.42069 -13.011554,-3.726505c-4.265938,-1.987424 -4.890868,-2.526179 -5.670502,-4.887475c-0.776242,-2.353153 -0.745708,-2.727704 0.273449,-3.297671c1.263429,-0.707032 1.551806,-1.933141 0.453938,-1.933141c-0.381336,0 -2.212697,-1.043585 -4.067807,-2.319905c-1.854431,-1.276321 -4.295794,-2.523465 -5.423516,-2.770451c-1.296677,-0.284984 -2.416935,-1.158256 -3.045936,-2.376223c-1.498201,-2.897337 -4.962114,-5.03336 -8.793113,-5.422159c-2.855268,-0.290412 -3.598262,-0.109923 -4.888832,1.18404c-1.111438,1.115509 -2.316513,1.5267 -4.466784,1.5267c-2.497681,0 -3.385881,0.41187 -5.855064,2.714133l-2.910907,2.714133l-5.627755,0c-9.355617,0 -11.464498,-1.713975 -12.347948,-10.037542c-0.306697,-2.894623 -0.142492,-3.379774 1.751295,-5.186708c1.612874,-1.538913 2.089204,-2.577069 2.089204,-4.556351c0,-1.748581 0.377943,-2.763666 1.187433,-3.193856c0.653427,-0.347409 4.812158,-0.675819 9.242301,-0.73078c7.303054,-0.090245 8.252321,-0.246986 10.177999,-1.687513c3.011331,-2.252731 6.222828,-3.78418 7.936125,-3.78418c1.205753,0 1.388279,-0.273449 1.017122,-1.5267c-0.53197,-1.795399 -0.938412,-3.394702 -1.011014,-3.980276c-0.028498,-0.230701 -1.30957,-1.251216 -2.846447,-2.269015c-2.627281,-1.738402 -2.773844,-2.005744 -2.445434,-4.459321c0.192704,-1.435776 0.794562,-3.467983 1.338068,-4.516996s2.566891,-5.012325 4.497997,-8.80804l3.510053,-6.900683l-1.329246,-4.796552c-1.265464,-4.566529 -5.22742,-10.878245 -8.569196,-13.652089c-0.647321,-0.537398 -1.905321,-2.129916 -2.7942,-3.53923c-0.924162,-1.463596 -3.052721,-3.35874 -4.964828,-4.420644c-2.672064,-1.483953 -3.462555,-2.336869 -3.916494,-4.233369c-0.510935,-2.131952 -0.774885,-2.351118 -2.576391,-2.142129c-1.103974,0.127564 -2.465111,0.626964 -3.024901,1.108724s-2.2853,1.512451 -3.83507,2.292085c-2.410828,1.211182 -2.932621,1.277 -3.617939,0.450546c-1.137222,-1.369959 -0.227987,-3.76111 2.254088,-5.931738c2.066812,-1.806934 2.083776,-1.870716 0.772849,-2.862054c-1.721439,-1.302105 -2.635423,-1.300069 -5.167709,0.010178c-2.652386,1.371316 -3.976205,0.83256 -3.976205,-1.621016c0,-1.308891 0.454617,-2.156379 1.378101,-2.568249c1.284464,-0.572682 1.15622,-0.831203 -1.865967,-3.776038c-5.515797,-5.37534 -8.637049,-7.845201 -9.520501,-7.535112c-0.466831,0.163527 -0.848167,1.340782 -0.848167,2.615746l0,2.31787l-6.954966,0.159455c-3.82557,0.087531 -8.976316,0.118743 -11.448213,0.069889c-3.786894,-0.075996 -4.480355,0.085495 -4.410466,1.027978c0.071246,0.96216 -0.720603,1.108045 -5.684752,1.046299c-3.172143,-0.039355 -8.973602,-0.306018 -12.892132,-0.592359c-4.365005,-0.319589 -8.068439,-0.2592 -9.560534,0.156062c-3.000474,0.834595 -5.25999,-0.576075 -6.433174,-4.016917c-0.659534,-1.935855 -1.053762,-2.236445 -2.735846,-2.089882c-8.005335,0.694818 -8.39617,0.664284 -10.429056,-0.835274c-4.49189,-3.314635 -8.160041,-8.607194 -8.160041,-11.773909c0,-1.016443 0.66157,-1.377423 3.148394,-1.718047c1.731617,-0.238165 4.392825,-0.432226 5.912739,-0.432226c2.371474,0 2.623888,-0.131635 1.77165,-0.928234c-1.471738,-1.375387 -5.220635,-2.464433 -8.486415,-2.464433c-2.105489,0 -3.010652,-0.318911 -3.364847,-1.187433c-1.198968,-2.932621 -2.180127,-8.588874 -2.000316,-11.535744c0.848845,-13.972357 1.11483,-15.559446 4.027773,-24.047219c4.234047,-12.339128 7.380407,-18.044913 11.205298,-20.324785c6.064731,-3.613868 15.893285,-2.60896 17.057647,1.744509c0.451224,1.687513 0.187275,2.360617 -1.779115,4.538031c-1.332639,1.474453 -2.512609,3.64983 -2.78945,5.140568c-0.263949,1.422205 -0.93434,3.284101 -1.490059,4.138374c-1.225431,1.882251 -2.944155,8.951211 -2.393187,9.842804c0.217809,0.352159 0.48583,2.887159 0.595752,5.633183c0.223238,5.582293 0.511614,6.380248 2.300906,6.380248c0.791848,0 1.413385,-0.678533 1.709904,-1.865967c0.255807,-1.025942 0.963517,-2.417614 1.571483,-3.092754c0.890235,-0.987945 0.945875,-1.451382 0.284984,-2.374866c-1.703797,-2.381652 -2.416935,-4.643203 -2.465111,-7.823489c-0.038676,-2.528893 0.269378,-3.541944 1.340782,-4.410466c0.764707,-0.620179 1.594553,-1.661728 1.844932,-2.314477c0.2497,-0.653427 0.769456,-1.187433 1.154185,-1.187433s0.699568,-0.618822 0.699568,-1.37403c0,-2.421007 5.165674,-9.764094 7.984301,-11.34779c2.99776,-1.684798 9.485895,-2.889873 11.516745,-2.138737c1.222039,0.451903 2.371474,2.184877 6.484742,9.771557c2.594711,4.785695 4.515639,10.073504 4.166873,11.465177c-0.484473,1.928392 2.019994,5.159567 3.993847,5.154817c0.812883,-0.002036 2.637459,-0.325696 4.054915,-0.719924c2.125844,-0.590324 2.503109,-0.949268 2.154343,-2.049171c-0.73553,-2.31787 3.372989,-5.658967 8.205503,-6.674053c3.829642,-0.80474 4.278152,-0.765385 6.446066,0.556397c1.28175,0.780992 3.094111,1.432384 4.027095,1.447311c2.118381,0.033927 5.108677,2.484789 5.768212,4.728698c0.673784,2.289371 2.32669,4.070521 3.776716,4.070521c0.862415,0 1.319069,0.751137 1.650871,2.714133c0.252415,1.492773 0.723317,2.714133 1.047656,2.714133s2.288693,1.686155 4.366362,3.746861c3.111075,3.086648 3.843212,3.535158 4.150588,2.5445c0.205596,-0.66157 0.806776,-2.201162 1.337389,-3.421844c1.065297,-2.451541 1.709904,-2.484789 7.594823,-0.388799c2.463754,0.877344 3.102254,1.522629 4.3304,4.377896c0.845453,1.965032 2.222197,3.810643 3.332956,4.466784c1.04087,0.614751 2.240516,1.767579 2.665957,2.561463c1.423563,2.660529 3.077148,3.189785 5.069322,1.623051c2.162486,-1.700404 3.808607,-1.384886 7.775313,1.488024c2.53025,1.833397 2.852554,2.34569 2.462397,3.920566c-1.166399,4.704271 -1.212539,5.599257 -0.281592,5.401125c0.5089,-0.107887 1.456811,-1.03612 2.106167,-2.062741c1.710582,-2.702598 3.793001,-2.403365 7.086602,1.0178c3.115146,3.235925 4.577385,5.625041 4.673737,7.633499c0.181168,3.782144 0.391513,4.204192 2.64153,5.276953c1.289213,0.614751 2.816592,2.032207 3.394702,3.149751l1.05037,2.031528l-3.097505,1.815755c-2.54925,1.493452 -3.379095,1.686834 -4.683915,1.092438c-2.10481,-0.958768 -2.570284,-0.347409 -1.260036,1.652907c1.027299,1.56809 0.983874,4.37179 -0.109923,7.134098c-0.588288,1.484631 1.686834,3.553479 4.998076,4.545494c1.428313,0.428155 3.786894,1.587768 5.240313,2.576391c1.453419,0.989302 3.710898,1.847646 5.017075,1.908035s3.138216,0.428155 4.0712,0.816954c0.932983,0.389478 3.465948,0.574718 5.629791,0.411191l3.932779,-0.297197l3.641688,3.790287c3.193856,3.323456 3.98299,3.800465 6.414854,3.874425c1.524664,0.046819 3.141609,0.123493 3.592833,0.169634c0.451224,0.046819 1.026621,1.092438 1.278357,2.324655c0.252415,1.231538 0.657498,2.438648 0.899735,2.681563c0.242915,0.242236 2.562141,-0.294483 5.155496,-1.192862l4.713092,-1.634587l2.557392,1.45749c2.38708,1.360459 2.570963,1.694298 2.767058,5.023181c0.257843,4.390111 -0.118743,5.988056 -1.893108,8.034512c-1.293963,1.491416 -1.30957,1.671227 -0.250379,2.841697c0.909913,1.004229 0.983874,1.572162 0.380657,2.898016c-0.412548,0.906521 -0.578111,2.715491 -0.366408,4.019631c0.498722,3.073077 -1.768936,6.540382 -4.279509,6.540382c-1.445954,0 -1.625765,0.225273 -1.224074,1.5267c0.725352,2.346368 2.912264,6.473886 3.681043,6.948859c1.418813,0.876665 0.599823,2.283265 -2.10956,3.624047c-2.753488,1.361816 -2.835591,1.363852 -5.170423,0.112637c-1.304819,-0.699568 -3.873068,-1.656299 -5.706465,-2.126523c-2.883088,-0.738923 -3.647116,-1.325854 -5.645396,-4.337185c-2.596747,-3.912422 -7.324088,-8.463345 -8.791756,-8.463345c-0.53197,0 -1.371316,-0.393549 -1.863931,-0.875308c-2.745346,-2.682242 -7.342408,-4.326328 -7.342408,-2.625924c0,0.313483 -0.806776,0.937733 -1.79472,1.3876l-1.79472,0.816954l1.846968,1.928392c2.205233,2.301584 2.195734,5.390268 -0.018999,6.488135c-1.065975,0.528577 -1.289892,1.041549 -0.895664,2.051206c0.289734,0.740958 0.548255,1.114152 0.57404,0.829167c0.078032,-0.848167 4.956685,1.460882 5.884241,2.784701c0.470224,0.671748 2.088525,2.599461 3.595548,4.282902c2.667314,2.97944 3.578584,3.430664 10.682827,5.282381c2.115667,0.551648 2.915657,1.146721 3.231175,2.403365c0.230701,0.918734 1.030692,1.996923 1.777758,2.397258s2.10956,1.916178 3.026937,3.369596s3.821499,4.838621 6.452851,7.522898l4.785016,4.880689l-0.139778,9.447219c-0.076675,5.195529 -0.356908,9.582247 -0.62425,9.746451c-0.737566,0.455975 -13.045481,-3.480876 -19.585184,-6.264898c-3.193856,-1.35978 -6.748692,-3.284101 -7.899484,-4.276117c-1.935855,-1.668513 -3.85814,-2.017958 -7.916448,-1.437812c-1.159614,0.165562 -0.380657,1.317712 1.384886,2.049849c1.042227,0.431547 2.447469,1.811684 3.123967,3.067649c1.008979,1.874109 2.159772,2.63678 6.418246,4.255761c2.853232,1.085653 8.471488,4.092913 12.483655,6.684231l7.296268,4.710378l-0.171669,4.0712l-0.170991,4.0712l-3.873746,0.084817c-2.141451,0.046141 -3.986383,-0.017642 -4.111911,-0.143171l-0.000007,-0.000002l0.000002,0.000006z" fill="#D3D3D3" stroke="null"/>
    <path id="svg_16" d="m548.835514,500.489375c-2.549928,-1.719404 -3.345169,-3.508017 -2.181484,-4.909866c1.122294,-1.352317 2.465111,-1.23493 4.78773,0.417976c2.072241,1.47581 2.587247,3.815392 1.15622,5.246419c-1.038834,1.038155 -1.130437,1.019836 -3.762467,-0.754529l0.000001,0z" fill="#D3D3D3" stroke="null"/>
    <path id="svg_17" d="m556.255954,492.752738c-1.242394,-0.237487 -1.523307,-0.675141 -1.357066,-2.112953c0.158776,-1.375387 0.631715,-1.862574 1.958926,-2.01728c2.280551,-0.265306 4.936329,1.842218 4.326328,3.4327c-0.441047,1.150792 -1.654264,1.32314 -4.928187,0.697532l-0.000001,0.000001z" fill="#D3D3D3" stroke="null"/>
    <path id="svg_18" d="m545.275929,417.351409c-4.569243,-4.569243 -3.063577,-18.665771 2.374866,-22.22875c2.408793,-1.578269 6.095264,-0.734173 8.555626,1.959604c1.908714,2.089882 1.955533,2.319905 1.955533,9.674527c0,8.404313 -0.289734,9.000744 -5.530725,11.390538c-3.493089,1.592517 -5.145317,1.413385 -7.355301,-0.795919l0.000001,0z" fill="#D3D3D3" stroke="null"/>
    <path id="svg_19" d="m563.929487,404.897609c-2.023386,-0.947911 -3.721755,-3.537873 -3.041865,-4.637775c0.811526,-1.313641 6.18958,-0.936376 7.282697,0.511614c1.303462,1.72551 1.023228,2.77588 -1.0178,3.813357c-1.282428,0.652749 -2.290728,0.74978 -3.223033,0.312804l0.000001,0z" fill="#D3D3D3" stroke="null"/>
    <path id="svg_20" d="m523.330806,386.933441c-0.711103,-0.711103 -0.55979,-1.116866 1.157577,-3.114467c1.002193,-1.165042 1.782507,-3.177571 2.068169,-5.333272c0.441725,-3.328205 2.009137,-6.706623 3.112432,-6.706623c1.014408,0 1.340782,2.146201 0.549612,3.611832c-0.439011,0.812205 -0.733494,2.475967 -0.654106,3.697328c0.239522,3.700042 -4.462035,9.616852 -6.233685,7.845201l0.000001,0l0,0.000001z" fill="#D3D3D3" stroke="null"/>
    <path id="svg_21" d="m314.251351,181.751862c-0.39083,-0.322958 -0.720773,-0.709537 -0.733072,-0.858945c-0.136047,-1.635139 -0.378683,-2.047985 -1.757975,-2.993174c-0.264653,-0.181294 -0.697997,-0.736564 -0.962954,-1.23368c-0.469482,-0.881113 -0.476315,-0.921047 -0.266627,-1.587006c0.11813,-0.37595 0.381416,-0.808687 0.584878,-0.961739c0.367599,-0.276648 0.374431,-0.274978 1.180841,0.333891c0.779382,0.588522 0.820834,0.601581 1.062711,0.334346c0.138476,-0.1529 0.321896,-0.532494 0.407836,-0.843306c0.133921,-0.484817 0.113423,-0.611753 -0.143183,-0.891135c-0.72715,-0.791529 -0.907685,-1.28409 -0.7478,-2.041153c0.173399,-0.820834 0.633011,-1.548895 0.977834,-1.548895c0.130277,0 0.595507,0.205132 1.03371,0.455816c0.683876,0.391134 0.822656,0.42469 0.979656,0.2355c0.372458,-0.448984 2.039786,-0.800943 2.398123,-0.50653c0.108108,0.088977 0.189797,0.500608 0.189797,0.956425c0,0.621623 -0.059368,0.823263 -0.265716,0.90313c-0.253113,0.098087 -0.253113,0.112208 0,0.298816c0.390071,0.287125 0.337687,0.450806 -0.417553,1.300944c-0.375798,0.423019 -0.683269,0.838751 -0.683269,0.923932c0,0.085029 0.204981,0.226086 0.455513,0.313393c0.350745,0.122229 0.45612,0.251443 0.45779,0.561495c0.001215,0.221531 0.10082,0.57349 0.221227,0.782267c0.452172,0.783634 0.56104,1.167631 0.632252,2.22852c0.065138,0.971001 0.031734,1.15518 -0.305801,1.6898c-0.392804,0.622382 -1.231251,1.244005 -1.677653,1.244005c-0.141361,0 -0.218191,0.062557 -0.170817,0.139083c0.148497,0.240055 -0.629974,1.010783 -1.196632,1.184789c-0.513059,0.157608 -0.581234,0.13468 -1.253116,-0.42059l0,0.000001l0.000001,0z" fill="#D3D3D3" stroke="null"/>
    <path id="svg_22" d="m412.708172,325.589964c-1.44324,-1.135186 -1.787935,-1.976567 -1.787935,-4.366362c0,-1.627801 -0.31484,-3.78893 -0.699568,-4.801302c-1.596588,-4.197407 -0.349445,-19.76771 2.009137,-25.099624c0.782349,-1.768257 1.608803,-4.378575 1.836111,-5.800103c0.576754,-3.606404 2.648315,-4.782981 10.167143,-5.772961c2.047135,-0.269378 3.53923,0.010856 5.570758,1.047656c1.5267,0.778278 3.407594,1.416099 4.181122,1.416099c1.959604,0 5.956843,1.756044 8.619408,3.786894c2.233731,1.703797 2.237802,1.716689 1.14265,3.880531c-0.604574,1.194219 -1.534163,2.668671 -2.064776,3.27528c-0.531291,0.607288 -1.122972,1.981318 -1.314998,3.0534s-1.376744,3.476126 -2.632031,5.342092c-1.285142,1.909393 -2.656458,5.127676 -3.136859,7.362764c-0.469545,2.18352 -1.179969,4.069164 -1.578947,4.190622s-2.688349,0.389478 -5.087642,0.59643c-2.399972,0.206953 -4.590277,0.61068 -4.867798,0.898378c-0.409834,0.424083 -1.049013,5.289166 -1.247823,9.495395c-0.05089,1.089724 -3.598941,2.90073 -5.681359,2.90073c-0.901771,0 -2.443398,-0.633072 -3.426593,-1.405921l0.000001,0.000001l-0.000001,0.000001z" fill="#D3D3D3" stroke="null"/>
    <path id="svg_23" d="m510.775905,303.078265c-3.148394,-5.119534 -7.672176,-14.885662 -7.320017,-15.802361c0.58761,-1.530092 14.250556,-1.351638 17.129572,0.223916c3.901566,2.134666 8.735437,7.168025 11.006488,11.459749c1.329925,2.513288 -0.611359,3.726505 -5.671859,3.542622c-3.239317,-0.116708 -4.902403,0.192025 -7.054031,1.314319c-4.139731,2.157058 -6.437923,1.94739 -8.090152,-0.738244l-0.000001,0l0,-0.000001z" fill="#D3D3D3" stroke="null"/>
    <path id="svg_24" d="m443.150567,270.999249c-1.492773,-0.918734 -3.647794,-1.672584 -4.789766,-1.675299c-3.474768,-0.005428 -4.485783,-1.274964 -4.740912,-5.951415c-0.12485,-2.291407 -0.53197,-4.737519 -0.906521,-5.436408c-1.061226,-1.984032 -1.472417,-8.316103 -0.639857,-9.870623c0.409834,-0.765385 0.799312,-3.09004 0.866487,-5.164995c0.102458,-3.183 -0.168277,-4.145159 -1.729581,-6.148869c-1.018479,-1.306177 -1.957569,-2.985547 -2.087168,-3.731933c-0.20356,-1.169791 -0.937054,-1.413385 -5.317665,-1.7669c-2.795557,-0.225952 -5.578222,-0.624929 -6.182795,-0.887521c-1.540949,-0.668355 -7.773277,-8.554948 -8.237394,-10.423628c-0.210345,-0.848167 -0.090245,-2.601497 0.267342,-3.896138c0.780314,-2.825412 2.431185,-3.410986 7.826203,-2.777237c5.601292,0.658177 8.940354,2.771808 10.030079,6.349035c0.558433,1.833397 2.296156,2.33619 6.820616,1.973853c5.418767,-0.434261 7.77192,0.884129 7.792276,4.365005c0.007464,1.212539 0.539434,1.997602 1.716689,2.534321c2.60014,1.184719 3.316671,3.379095 2.179449,6.678803c-0.947911,2.752131 -0.940447,2.783344 1.312284,4.985184c1.246465,1.218646 2.266301,2.897337 2.266301,3.730576c0,1.262072 0.479723,1.585054 2.883766,1.939248c1.586411,0.234094 5.479156,0.931626 8.651299,1.54977l5.767533,1.124329l3.79775,-1.802184c2.088525,-0.991337 4.120732,-1.802184 4.515639,-1.802184s2.015244,-1.083618 3.600298,-2.407436c2.821341,-2.357224 2.997081,-2.404722 8.376494,-2.277837c6.347,0.149956 8.289641,0.709746 12.958628,3.732611c5.614184,3.634903 8.618051,8.68794 6.452173,10.853818c-0.445118,0.445118 -0.398978,1.399136 0.135707,2.815913c0.678533,1.797434 0.631715,2.339583 -0.291091,3.364168c-0.605252,0.671748 -1.210503,2.29005 -1.345532,3.596905c-0.213738,2.068848 -0.66632,2.584533 -3.518874,4.007418c-5.633862,2.81252 -13.844793,2.790807 -15.107543,-0.037998c-0.548934,-1.230181 -0.781671,-1.300748 -1.642051,-0.496008c-0.551648,0.515007 -2.36876,1.612874 -4.03863,2.438648c-2.629995,1.301426 -4.396896,1.537556 -13.214435,1.762829c-10.878924,0.276841 -13.396282,-0.238844 -14.246485,-2.918371c-0.592359,-1.865967 -1.072762,-1.735688 -3.734647,1.011014c-1.266143,1.305498 -2.623209,2.364689 -3.016759,2.353832c-0.39287,-0.012892 -1.936534,-0.774885 -3.429307,-1.694298l0,0.000003l0,-0.000001z" fill="#D3D3D3" stroke="null"/>
    <path id="svg_25" d="m420.080436,268.828621c-1.396422,-0.344017 -8.906428,-5.458121 -10.806999,-7.358693c-1.658336,-1.658336 -1.288535,-3.798429 1.593196,-9.207018c2.281229,-4.281545 3.032365,-5.122248 5.258632,-5.890347c3.073077,-1.05919 6.306288,-0.330445 9.197519,2.072241c1.760794,1.463596 1.871395,1.917535 2.300906,9.445183c0.449867,7.875735 0.444439,7.914412 -1.30957,9.669099c-1.683441,1.684119 -3.255603,2.00303 -6.233685,1.269535l0.000001,0z" fill="#D3D3D3" stroke="null"/>
    <path id="svg_26" d="m393.509073,256.372107c-3.09479,-1.423563 -6.337501,-4.816229 -6.337501,-6.629948c0,-0.635107 0.977766,-2.011852 2.173342,-3.060863l2.173342,-1.907357l-6.316466,0.206274c-7.144277,0.233415 -8.208896,-0.371837 -8.208896,-4.671701c0,-3.240674 -0.863772,-4.495283 -4.738877,-6.87897c-1.872073,-1.152149 -3.403523,-2.279194 -3.403523,-2.504466c0,-0.225952 0.515686,-1.283785 1.146043,-2.350439c1.06394,-1.802184 1.365209,-1.911428 4.240833,-1.537556c3.673579,0.478366 5.469656,1.296677 5.469656,2.491574c0,0.480401 1.36928,2.301584 3.041865,4.047451c2.256123,2.355189 3.550765,3.174857 5.015039,3.174857c1.763508,0 2.00303,-0.261914 2.260194,-2.46579c0.308054,-2.635423 -0.646642,-3.989776 -4.379932,-6.214686c-1.026621,-0.611359 -1.865967,-1.496844 -1.865967,-1.967746s1.520593,-2.057991 3.379774,-3.527694c2.53025,-1.999637 3.852033,-2.603532 5.258632,-2.402686c1.032727,0.14792 3.52973,0.423404 5.548366,0.612037c2.018637,0.18931 4.40843,0.828489 5.311558,1.42017l1.642051,1.075476l-0.376586,12.583399c-0.223238,7.464544 -0.675141,12.9437 -1.111438,13.468885c-0.426119,0.51365 -0.549612,1.874787 -0.293126,3.239996c0.686675,3.660687 -0.510935,5.223349 -3.947028,5.154817c-1.572162,-0.029855 -4.128875,-0.639857 -5.681359,-1.355031l0.000002,-0.000001l0.000002,-0.000002z" fill="#D3D3D3" stroke="null"/>
    <path id="svg_27" d="m344.164099,252.053243c-2.786736,-1.712618 -4.643203,-1.738402 -6.464386,-0.090245c-0.610002,0.552326 -1.469024,0.782349 -1.908035,0.510935c-1.044263,-0.645285 2.655101,-16.143663 3.793679,-15.891928c0.496686,0.109923 0.768099,-1.109402 0.768099,-3.453735c0,-4.54753 3.180963,-20.625375 4.485105,-22.669796c2.006422,-3.143644 7.340373,-0.534684 5.590436,2.735167c-0.466831,0.873951 -0.492615,1.838147 -0.071246,2.779272c0.727388,1.625087 0.5089,5.960914 -0.388799,7.732565c-0.327053,0.644607 -0.563182,2.393187 -0.524506,3.886638c0.059711,2.323298 0.303304,2.747382 1.696333,2.944155c0.894307,0.126207 2.977404,-0.148599 4.628276,-0.61068c2.708704,-0.7586 3.130074,-0.713138 4.301901,0.45801c2.50718,2.50718 3.107004,11.910294 0.945197,14.822559c-0.565218,0.761993 -1.653585,2.367403 -2.416935,3.568407c-3.159251,4.9594 -9.393614,6.376177 -14.435116,3.278673l-0.000001,0.000002l-0.000002,0.000001z" fill="#D3D3D3" stroke="null"/>
    <path id="svg_28" d="m362.718591,251.950784c-0.481758,-1.266821 -0.354873,-2.151629 0.503472,-3.526337c0.631036,-1.008979 1.172506,-1.894465 1.203039,-1.968425s1.024585,-0.303983 2.207947,-0.512292c2.028814,-0.357587 2.231017,-0.198132 3.556871,2.798949c0.854273,1.931106 1.160971,3.422522 0.781671,3.801144c-0.343338,0.34266 -2.195055,0.73078 -4.116661,0.861058c-3.199963,0.21713 -3.547372,0.095673 -4.136339,-1.454097z" fill="#D3D3D3" stroke="null"/>
    <path id="svg_29" d="m494.72113,230.650268c-0.23613,-0.742994 -0.276163,-1.597267 -0.090923,-1.897858c0.516364,-0.834595 -0.378622,-1.872752 -2.611674,-3.028972c-1.931784,-1.000836 -2.091918,-0.97166 -3.595548,0.650035c-1.160971,1.253251 -1.965032,1.576233 -3.067649,1.232895c-0.821704,-0.255129 -2.256802,-0.623572 -3.189785,-0.817633s-2.361974,-1.140615 -3.176214,-2.102775c-1.253251,-1.481238 -1.643408,-1.614231 -2.5445,-0.865809c-0.585574,0.48583 -1.064618,1.68887 -1.064618,2.672742c0,2.332119 -2.16045,3.702756 -4.890868,3.102254c-1.134508,-0.249022 -5.823851,-0.500079 -10.420235,-0.557754c-7.320696,-0.091602 -8.593624,-0.280913 -10.263494,-1.523307c-1.632551,-1.215931 -1.935177,-1.962997 -2.108203,-5.221313c-0.131635,-2.477324 0.167598,-4.518353 0.86038,-5.857099c1.62848,-3.149073 5.627755,-6.826045 7.424511,-6.826045c2.902765,0 3.322777,-1.583018 1.004908,-3.786894c-3.774681,-3.588762 -4.930901,-7.423154 -3.218284,-10.676721c1.130437,-2.146879 1.884287,-2.478003 5.666431,-2.488182c4.124126,-0.011535 6.848436,1.983353 7.898127,5.785853c0.382014,1.385565 1.431705,3.254924 2.33144,4.15466c1.343496,1.343496 1.881573,1.504308 3.012009,0.899735c1.30957,-0.700925 1.229502,-0.887521 -1.645443,-3.845248c-1.661728,-1.709904 -3.384524,-3.985026 -3.828285,-5.055751c-0.718567,-1.734331 -0.607966,-2.20659 1.005586,-4.323614l1.812363,-2.376223l-4.633025,0c-5.776354,0 -7.649106,-1.095831 -7.649106,-4.476284c0,-1.300069 0.632393,-3.602333 1.404564,-5.11614c0.772171,-1.513808 1.242394,-2.9143 1.044263,-3.112432c-1.068689,-1.069368 1.962318,-4.257796 6.032161,-6.345643l4.485105,-2.300227l4.498675,2.362653c5.724785,3.00726 5.373983,2.885802 5.411302,1.87343c0.017642,-0.477009 0.25445,-1.401171 0.525185,-2.054599s0.230701,-1.217289 -0.088888,-1.254608c-0.320268,-0.037319 -1.465632,-0.145206 -2.545857,-0.240201c-2.796914,-0.245629 -7.410941,-5.405874 -8.923391,-9.980545c-0.659534,-1.992174 -2.219483,-4.963471 -3.467305,-6.603486c-1.247823,-1.640015 -2.269015,-3.222355 -2.269015,-3.516838c0,-0.294483 -0.584896,-0.720603 -1.300069,-0.947911c-1.927035,-0.611359 -2.678849,-3.626082 -2.159093,-8.651978c0.608645,-5.880847 1.308213,-6.655054 5.663039,-6.271005c4.521745,0.398978 5.751926,1.295998 10.717432,7.818739c2.296156,3.016081 4.274081,5.38484 4.396217,5.262704c0.751137,-0.751815 -1.082261,-4.886118 -3.27053,-7.373621c-3.368918,-3.828964 -3.226426,-5.873384 0.542148,-7.788205c1.492773,-0.7586 3.930065,-2.208625 5.416053,-3.223033c1.48531,-1.014408 3.241353,-1.844254 3.901566,-1.844254c0.754529,0 1.199647,-0.512971 1.199647,-1.384208c0,-0.761314 1.241716,-2.600818 2.759595,-4.088841l2.758916,-2.704633l-1.741116,-2.070205c-0.958089,-1.138579 -1.751295,-2.581141 -1.763508,-3.205391c-0.012213,-0.62425 -0.719924,0.238844 -1.572162,1.918213c-4.195371,8.255714 -7.43401,11.161193 -12.543366,11.252117c-1.740437,0.030534 -4.913938,0.474295 -7.050639,0.985231c-5.383483,1.286499 -7.576502,0.49058 -7.856737,-2.852554c-0.113315,-1.356388 0.252415,-3.564335 0.813562,-4.907152s0.842739,-2.441362 0.625607,-2.441362c-0.725352,0 -2.92855,2.90955 -2.92855,3.868318c0,0.520435 -0.779635,1.669192 -1.732974,2.552642c-1.394386,1.291927 -2.106846,1.49888 -3.645759,1.057833c-4.544816,-1.303462 -7.844523,-5.105284 -6.17601,-7.115779c0.730102,-0.880058 0.641214,-1.04087 -0.576754,-1.04087c-0.791848,0 -1.669192,-0.046141 -1.948747,-0.102458c-1.122294,-0.225952 -2.163164,-2.397937 -2.18352,-4.556351c-0.016964,-1.812363 0.538077,-2.795557 2.69242,-4.763982c2.912264,-2.662565 3.307171,-3.46934 1.696333,-3.46934c-0.55979,0 -1.62848,-0.61068 -2.374866,-1.357066s-2.062062,-1.357066 -2.9238,-1.357066c-5.882884,0 -4.280188,-6.313752 2.245267,-8.844002c1.306177,-0.506864 3.484269,-2.082419 4.840656,-3.502588c2.094632,-2.19302 2.896659,-2.581819 5.331915,-2.581819c2.691742,0 2.841697,-0.099744 2.455612,-1.637979c-0.318911,-1.270214 0.044784,-2.021351 1.623051,-3.34924c1.118223,-0.941126 2.033564,-2.304299 2.033564,-3.028972c0,-1.700404 1.382851,-2.830841 3.07647,-2.515323c0.733494,0.137064 1.673263,0.272092 2.087168,0.30059c0.414584,0.028498 1.841539,0.790491 3.172143,1.692941c2.593354,1.760115 3.199284,1.405921 3.199284,-1.868002c0,-0.810169 1.068689,-2.976725 2.374866,-4.813515s2.374866,-3.884602 2.374866,-4.549565s1.209825,-2.481397 2.689028,-4.035916c2.165878,-2.276479 3.036436,-2.760273 4.474249,-2.485468c1.486667,0.284306 1.896501,0.02307 2.449505,-1.56334c0.722638,-2.073598 3.55755,-3.459841 6.145476,-3.005223c5.137175,0.902449 6.756155,0.761993 9.783092,-0.849524c3.372989,-1.795399 8.60923,-2.472575 10.69097,-1.382172c0.918734,0.48108 2.423721,0.329767 5.25999,-0.528577c2.877659,-0.871237 4.39486,-1.019157 5.498833,-0.53672c0.838668,0.366408 3.204034,0.558433 5.256597,0.427476c5.044895,-0.322303 6.296789,0.085495 7.302375,2.37758c0.928912,2.117702 2.76638,3.314635 5.882205,3.832356c2.619817,0.435619 3.747539,1.655621 4.491212,4.860334c0.947232,4.086127 0.761993,7.673533 -0.664284,12.832421c-1.004229,3.633546 -1.82729,5.169066 -3.536516,6.60145c-1.225431,1.025942 -2.588604,1.865967 -3.031008,1.865967c-1.224074,0 -4.69545,4.255082 -6.656411,8.158005c-0.963517,1.918892 -1.751973,3.630153 -1.751973,3.803179c0,0.877344 3.426593,-2.355189 4.052879,-3.822856c0.398299,-0.935019 1.63323,-2.309049 2.744667,-3.0534c1.110759,-0.744351 2.020672,-1.58234 2.021351,-1.862574c0.003393,-0.768778 3.25221,-0.610002 3.74279,0.183204c0.235451,0.380657 0.427476,2.393866 0.427476,4.47357c0,2.870196 -0.397621,4.382646 -1.652228,6.27779c-2.538393,3.836427 -4.65881,8.250286 -4.373825,9.105237c0.141135,0.423404 -1.171148,3.988419 -2.914979,7.921876c-1.744509,3.933457 -3.487661,7.915091 -3.872389,8.848074c-0.856987,2.074955 -2.321262,9.542213 -2.594711,13.227327c-0.265306,3.576549 -3.466626,6.643519 -6.602807,6.325287c-1.912785,-0.194061 -2.16045,0.001357 -2.577069,2.035599c-0.253772,1.236966 -1.145364,2.977404 -1.980639,3.866961c-1.42492,1.516522 -7.006535,3.944313 -7.631463,3.319385c-0.155384,-0.156062 -0.867166,0.36505 -1.580304,1.158256c-1.280393,1.424242 -1.277679,1.454776 0.230701,2.461719c1.820505,1.215931 2.01253,3.942956 0.403728,5.720714c-0.901771,0.996765 -0.935697,1.255965 -0.169634,1.319069c0.524506,0.042747 1.258679,0.149277 1.631873,0.23613c0.373194,0.086852 1.243073,0.204239 1.933141,0.261235c0.690069,0.056318 2.140094,1.051727 3.223033,2.210661c2.488182,2.663243 2.82202,7.526291 0.611359,8.906428c-1.775722,1.109402 -1.711261,1.743152 0.339267,3.356704c0.932983,0.734173 1.696333,1.916856 1.696333,2.629317c0,0.815597 -0.628321,1.45274 -1.696333,1.720761c-1.36928,0.343338 -1.696333,0.846131 -1.696333,2.604889c0,3.047971 -3.024901,6.315787 -6.118335,6.609592l-2.363332,0.224595l0.23138,5.103927c0.208988,4.592992 0.072603,5.272204 -1.357066,6.785332c-4.174336,4.41793 -4.185872,4.442357 -2.898016,6.408068c0.643928,0.983874 2.118381,2.277837 3.275959,2.875624s2.446791,1.555198 2.866803,2.127881c1.015765,1.386243 0.619501,4.861013 -0.958768,8.41042c-3.013366,6.774476 -12.746926,12.778817 -14.051745,8.668262l-0.000002,0.000001l0.000001,-0.000007z" fill="#D3D3D3" stroke="null"/>
    <path id="svg_30" d="m367.828625,205.25684c-1.870716,-1.870716 -2.203197,-4.833871 -0.947232,-8.437561c0.921448,-2.642887 2.144165,-2.714133 3.913779,-0.229344c2.667993,3.746182 2.703955,8.229252 0.07871,9.634493c-1.105331,0.591681 -1.663085,0.414584 -3.045257,-0.967588l0,-0.000001l0,0.000001z" fill="#D3D3D3" stroke="null"/>
    <path id="svg_31" d="m417.785636,204.329285c-4.837264,-2.509216 -5.34752,-4.945829 -1.710582,-8.16479c2.963833,-2.624566 6.70798,-2.907515 10.166464,-0.770135c3.794358,2.345011 3.857462,5.3387 0.177097,8.434847c-2.297513,1.933141 -5.511047,2.119738 -8.632978,0.500079l-0.000001,-0.000001z" fill="#D3D3D3" stroke="null"/>
    <path id="svg_32" d="m411.833543,193.019492c-2.243909,-0.975731 -3.300386,-2.944155 -2.662565,-4.956007c0.23613,-0.741637 -0.392192,-2.084454 -1.667156,-3.562299c-2.483432,-2.879695 -2.96519,-4.548887 -2.50243,-8.661477c0.410513,-3.645759 2.48886,-5.882205 4.825729,-5.194172c0.787099,0.232058 3.235925,1.612874 5.439801,3.069006s4.216406,2.647637 4.471534,2.647637c1.088367,0 2.038314,3.792322 2.038314,8.143078l0,4.686629l-3.151108,2.406079c-3.514124,2.68292 -3.769252,2.736524 -6.792118,1.421527l-0.000001,0l0,-0.000001z" fill="#D3D3D3" stroke="null"/>
    <path id="svg_33" d="m397.148725,191.748599c-0.822382,-0.866487 -2.564177,-2.797592 -3.870354,-4.290366c-4.182479,-4.780945 -6.268291,-5.920881 -10.519302,-5.749212c-3.370953,0.136386 -3.97349,-0.058354 -5.781782,-1.866645c-2.110238,-2.110238 -2.577069,-4.563137 -1.316355,-6.917647c0.386085,-0.721281 1.149435,-1.312284 1.696333,-1.312284s1.585732,-0.591681 2.307692,-1.314319c1.133151,-1.132472 1.217289,-1.671227 0.607966,-3.901566c-0.42069,-1.542307 -1.636622,-3.360776 -3.010652,-4.502747c-4.350755,-3.616582 -2.475967,-9.280299 3.07172,-9.280299c3.023544,0 6.836901,2.660529 6.836901,4.770089c0,1.26275 0.978445,2.207268 2.531607,2.443398c1.654942,0.251058 4.84812,3.360097 6.323252,6.157689c0.82781,1.569447 2.033564,3.421165 2.678849,4.113947c2.332119,2.50243 2.640173,3.742111 1.642729,6.607557c-1.344175,3.86289 -1.215253,4.75109 1.072083,7.355979c1.11958,1.274964 2.035599,2.798271 2.035599,3.384524c0,1.951462 -1.486667,4.363648 -3.159251,5.125641c-1.406599,0.640536 -1.872752,0.5184 -3.147037,-0.823739l0.000002,-0.000001l0,0.000001z" fill="#D3D3D3" stroke="null"/>
    <path id="svg_34" d="m436.087036,184.404834c-1.522629,-1.584375 -2.946191,-3.440842 -3.163322,-4.12684c-0.21713,-0.685318 -1.167077,-2.075633 -2.10956,-3.09004c-2.438648,-2.622531 -4.965506,-7.881843 -4.965506,-10.334061c0,-2.684278 2.648315,-5.420124 5.246419,-5.420124c1.762829,0 4.253046,-1.927713 4.253046,-3.291565c0,-0.605252 -3.294279,-2.380295 -4.410466,-2.376902c-0.373194,0.001357 -2.125166,0.242236 -3.892746,0.53672c-4.108519,0.681926 -6.207223,0.139778 -7.108993,-1.837468c-0.53672,-1.178612 -0.475652,-2.034242 0.244272,-3.408951c0.572682,-1.092438 0.678533,-1.835433 0.261914,-1.835433c-0.384728,0 -1.311605,-0.61068 -2.057313,-1.357066c-1.524664,-1.525343 -1.768257,-4.723949 -0.612037,-8.041298c0.66632,-1.912785 1.027978,-2.136701 3.438128,-2.136701c2.482754,0 2.65578,-0.119422 2.209982,-1.523307c-0.265985,-0.837989 -1.390314,-2.315156 -2.498359,-3.282744c-1.708547,-1.491416 -1.944676,-2.079026 -1.55452,-3.85814c0.548255,-2.494967 1.907357,-3.761788 4.350076,-4.054915c4.232012,-0.507543 4.355505,-1.005586 1.103974,-4.452535l-2.383009,-2.526858l1.371316,-2.689706c0.754529,-1.479202 2.266979,-3.152465 3.360097,-3.717684c1.579626,-0.816954 2.03085,-1.551806 2.198448,-3.576549c0.196775,-2.379616 0.369801,-2.562141 2.607603,-2.750096c2.475967,-0.208988 6.435209,1.867324 7.500507,3.933457c1.502951,2.916336 3.334313,7.308482 3.334313,7.996515c0,1.454097 2.849161,5.894418 5.843528,9.107273c2.190984,2.350439 2.977404,3.749575 2.977404,5.299345c0,1.59591 0.821025,2.973332 3.392667,5.692215c2.971297,3.141609 3.392667,3.943635 3.392667,6.457601c0,3.038472 0.253772,3.368918 6.756155,8.781577c2.4244,2.018637 2.74331,2.622531 2.74331,5.195529c0,2.505144 -0.565218,3.660009 -4.0522,8.278106c-2.228982,2.95162 -4.824371,5.779746 -5.767533,6.284575c-1.124329,0.601859 -1.715332,1.496166 -1.715332,2.595389c0,0.922126 -1.131115,3.161287 -2.513966,4.974328c-2.793521,3.662044 -3.221676,3.873746 -6.09255,3.004545c-1.289892,-0.390835 -1.509058,-0.160133 -1.696333,1.787935c-0.209667,2.182841 -0.298554,2.241873 -3.719041,2.440005c-3.342455,0.194739 -3.634224,0.069889 -6.27304,-2.676135l0.000002,0.000001l-0.000002,0.000002z" fill="#D3D3D3" stroke="null"/>
    <path id="svg_35" d="m352.096832,173.648046c0.207631,-0.932983 0.584217,-2.841697 0.837989,-4.240833s0.740958,-2.5445 1.083618,-2.5445c0.975052,0 -0.090245,6.32393 -1.257322,7.463865c-0.931626,0.909913 -1.001515,0.837989 -0.664284,-0.678533l-0.000001,0l0,0.000001z" fill="#D3D3D3" stroke="null"/>
    <path id="svg_36" d="m403.440765,144.27977c-2.311084,-1.848325 -3.916494,-4.602491 -3.552122,-6.093229c0.573361,-2.341618 1.532128,-3.214891 3.531087,-3.214891c1.395743,0 2.264944,0.660892 3.648473,2.775201c2.17402,3.320742 2.245946,4.259832 0.460046,6.045731c-1.546378,1.545699 -2.605568,1.671906 -4.087484,0.487187l0,0.000001z" fill="#D3D3D3" stroke="null"/>
   </g>
   <path d="m139.126955,505.230286c-0.723995,-0.477009 -3.606404,-1.895822 -6.405354,-3.152465c-4.273403,-1.918892 -19.013859,-9.570033 -43.204927,-22.426881c-7.689817,-4.086127 -35.86184,-21.594999 -56.709095,-35.243696c-7.382442,-4.833193 -10.686899,-7.382442 -10.686899,-8.243501c0,-1.717368 2.094632,-5.008254 4.284937,-6.731049c3.935493,-3.095469 1.663085,-5.093071 -6.072194,-5.338021c-1.532806,-0.048176 -2.226946,-0.451224 -2.486146,-1.443919c-0.198132,-0.756565 -0.61543,-1.307534 -0.927555,-1.222717c-1.269535,0.344695 -3.578584,-0.949268 -3.986383,-2.233053c-0.324339,-1.021871 1.283107,-3.903602 6.318501,-11.330827c9.339331,-13.774226 26.604611,-39.342715 39.943896,-59.15453c10.623795,-15.778613 24.352559,-36.122396 42.892123,-63.560925l8.332388,-12.332342l2.159772,0.744351c4.451178,1.534163 5.739035,3.06222 6.243185,7.403476c0.255807,2.203197 1.177934,5.414017 2.049171,7.135456c0.871237,1.720761 1.782507,4.305972 2.025422,5.743784c0.325017,1.921606 1.175898,3.244068 3.209462,4.984505c2.524822,2.161129 2.67817,2.473932 1.752652,3.564335c-1.42492,1.67937 -8.289641,12.86024 -9.899121,16.123308c-0.736208,1.492773 -1.880894,4.394182 -2.543821,6.446066c-0.662927,2.052563 -1.886322,5.105963 -2.719562,6.785332c-2.959084,5.965664 -3.12736,5.511047 4.04338,10.901316c4.938365,3.712256 6.479314,5.245741 6.479314,6.450816c0,0.869201 -1.092438,3.671543 -2.427114,6.227578c-1.584375,3.033043 -2.549928,5.943273 -2.781987,8.3826c-0.347409,3.661366 -0.304661,3.774002 2.117702,5.621648c2.644922,2.017958 2.538393,1.456811 1.777758,9.350867c-0.023749,0.250379 -0.937054,0.651392 -2.029493,0.890914c-2.147558,0.471581 -4.121411,2.884445 -4.121411,5.037431c0,0.738244 -0.618144,2.389115 -1.372673,3.669508c-1.481238,2.509216 -1.153506,4.755839 0.947911,6.499671c0.774206,0.641893 0.979123,1.641372 0.73553,3.579941c-0.2592,2.062741 0.014249,3.183 1.173863,4.812836c1.082939,1.520593 1.539592,3.195213 1.609481,5.899847c0.053604,2.085811 0.629,4.804694 1.285142,6.072873c1.14265,2.209304 1.134508,2.480718 -0.198132,7.115779c-1.772328,6.163117 -2.634066,10.974597 -3.130753,17.476981c-0.218487,2.855946 -0.733494,6.159046 -1.145364,7.340373c-0.664963,1.908714 -0.560468,2.349082 0.947232,3.966705c2.264944,2.430506 2.897337,3.769931 4.230655,8.960031c0.620858,2.416935 1.981996,5.979914 3.024901,7.917805c1.384886,2.572998 1.663764,3.611832 1.033406,3.854069c-0.474295,0.182525 -1.017122,1.802862 -1.205753,3.602333c-0.188632,1.798113 -0.563182,4.124804 -0.83256,5.168388c-0.583539,2.263587 0.283627,3.104968 5.787888,5.62097c2.052563,0.937733 4.905795,2.516002 6.341572,3.50666s3.419808,1.816434 4.410466,1.834076l1.800827,0.031891l-0.18931,7.087959c-0.103816,3.898174 -0.275484,7.173454 -0.380657,7.278626c-0.100422,0.104495 -0.778957,-0.200167 -1.502272,-0.677176l-0.000002,0l0.000001,-0.000003z" fill="#D3D3D3" id="CA-YT" stroke="null"/>
  </g>
  <g stroke="null" id="svg_42">
   <g stroke="null" transform="matrix(0.22377322244592326,0,0,0.22377322244592326,228.17239411753866,106.00559619352356) " id="svg_41">
    <g stroke="null" id="svg_38">
     <path stroke="null" id="svg_37" d="m1804.263174,1608.956852c13.14,0 23.79,10.54 23.79,23.54s-10.65,23.54 -23.79,23.54c-13.14,0 -23.8,-10.54 -23.8,-23.54s10.66,-23.54 23.8,-23.54z" fill="#FFFFFF"/>
    </g>
    <g stroke="null" id="svg_40">
     <path stroke="#273754" id="svg_39" d="m1828.053174,1632.496852c0,13 -10.65,23.54 -23.79,23.54c-13.14,0 -23.8,-10.54 -23.8,-23.54s10.66,-23.54 23.8,-23.54c13.14,0 23.79,10.54 23.79,23.54z" stroke-miterlimit="10" fill="none"/>
    </g>
   </g>
  </g>
  <g stroke="null" id="svg_48">
   <g stroke="null" transform="matrix(0.22377322244592326,0,0,0.22377322244592326,228.17239411753866,106.00559619352356) " id="svg_47">
    <g stroke="null" id="svg_44">
     <path stroke="null" id="svg_43" d="m70.364896,1707.270687c13.14,0 23.79,10.54 23.79,23.54s-10.65,23.54 -23.79,23.54c-13.14,0 -23.8,-10.54 -23.8,-23.54s10.66,-23.54 23.8,-23.54z" fill="#FFFFFF"/>
    </g>
    <g stroke="null" id="svg_46">
     <path stroke="#273754" id="svg_45" d="m94.154896,1730.810687c0,13 -10.65,23.54 -23.79,23.54c-13.14,0 -23.8,-10.54 -23.8,-23.54s10.66,-23.54 23.8,-23.54c13.14,0 23.79,10.54 23.79,23.54z" stroke-miterlimit="10" fill="none"/>
    </g>
   </g>
  </g>
  <g stroke="null" id="svg_54">
   <g stroke="null" transform="matrix(0.22377322244592326,0,0,0.22377322244592326,228.17239411753866,106.00559619352356) " id="svg_53">
    <g stroke="null" id="svg_50">
     <path stroke="null" id="svg_49" d="m-841.272303,1461.486138c13.14,0 23.79,10.54 23.79,23.54s-10.65,23.54 -23.79,23.54c-13.14,0 -23.8,-10.54 -23.8,-23.54s10.66,-23.54 23.8,-23.54z" fill="#FFFFFF"/>
    </g>
    <g stroke="null" id="svg_52">
     <path stroke="#273754" id="svg_51" d="m-817.482303,1485.026138c0,13 -10.65,23.54 -23.79,23.54c-13.14,0 -23.8,-10.54 -23.8,-23.54s10.66,-23.54 23.8,-23.54c13.14,0 23.79,10.54 23.79,23.54z" stroke-miterlimit="10" fill="none"/>
    </g>
   </g>
  </g>
  <text xml:space="preserve" text-anchor="start" font-family="Helvetica, Arial, sans-serif" font-size="10" id="svg_55" y="442" x="48.5" fill-opacity="null" stroke-opacity="null" stroke-width="0" stroke="null" fill="#273754">Whitehorse</text>
  <text xml:space="preserve" text-anchor="start" font-family="Helvetica, Arial, sans-serif" font-size="10" id="svg_56" y="497" x="252.5" fill-opacity="null" stroke-opacity="null" stroke-width="0" stroke="null" fill="#273754">Yellowknife</text>
  <text xml:space="preserve" text-anchor="start" font-family="Helvetica, Arial, sans-serif" font-size="10" id="svg_57" y="474.972117" x="639.5" fill-opacity="null" stroke-opacity="null" stroke-width="0" stroke="null" fill="#273754">Iqaluit</text>
 </g>
</svg>