<svg width="800" height="600" xmlns="http://www.w3.org/2000/svg">
 <g>
  <title>background</title>
  <rect x="-1" y="-1" width="802" height="602" id="canvas_background" fill="#efefef"/>
 </g>

 <g>
  <title>Layer 1</title>
  <g stroke="null" id="Canada">
   <g stroke="null" id="CA-NT">
    <path stroke="null" fill="#D3D3D3" d="m147.01287,297.31073c-1.15147,-0.01967 -2.80302,0.18864 -5.17382,0.48787c-3.6444,0.45869 -7.02824,0.97437 -7.52764,1.1664c-0.65208,0.2497 -0.81425,1.26614 -0.57269,3.62608c0.39084,3.81879 -0.47565,4.8203 -2.07767,2.37487c-0.61882,-0.9452 -1.3401,-1.71737 -1.59048,-1.71737c-1.13111,0 -10.99427,17.85085 -12.9342,23.40872c-1.1725,3.35874 -2.57775,6.78601 -3.11718,7.61246c-1.55927,2.3898 -1.18743,3.06765 3.28681,6.1068c9.50218,6.45489 9.76003,7.10289 5.85235,15.1184c-1.36453,2.79895 -2.64085,6.366 -2.81998,7.9307c-0.30398,2.65103 -0.14249,2.98961 2.31108,4.96143c1.44867,1.16504 2.50447,2.3518 2.3328,2.62932c-0.17167,0.2782 -0.40033,2.26969 -0.48786,4.4315c-0.16964,4.18994 -0.97574,5.5694 -3.7109,6.2554c-1.92093,0.48243 -2.98962,2.13059 -2.98962,4.62217c0,0.95741 -0.28227,1.7384 -0.61475,1.7384c-0.33248,0 -0.79253,0.79999 -1.03884,1.78115c-0.32637,1.30007 -0.08074,2.18623 0.93299,3.2651c0.96894,1.03205 1.39506,2.40065 1.39913,4.49528c0.0034,1.77776 0.67243,4.37858 1.63255,6.36125c1.12026,2.31312 1.51924,4.05356 1.27225,5.57687c-0.24088,1.48463 0.10043,3.09818 1.03884,4.89833c1.37471,2.63746 1.36996,2.73788 0.16963,6.70052c-1.62509,5.36787 -3.27053,14.33673 -3.7109,20.18636c-0.19677,2.61303 -0.54147,5.37127 -0.76335,6.12783c-0.25784,0.8821 0.12689,1.97996 1.05987,3.0534c1.80422,2.07699 2.89598,4.65338 4.02913,9.47843c1.01984,4.34194 2.32601,7.18974 4.2829,9.32984l1.39914,1.5267l-1.46292,1.56877c-0.97369,1.03612 -1.48463,2.43457 -1.48463,4.11326c0,1.39982 -0.32705,3.145 -0.7206,3.88053c-0.64325,1.20169 -0.28091,1.53688 3.5623,3.28682c2.35315,1.07208 5.45948,2.75484 6.89118,3.73193c2.06613,1.41067 3.0819,1.68141 4.91937,1.33603c2.74738,-0.515 2.554,-1.2105 2.60828,9.79667l0.04207,8.37581l7.46386,3.01133c24.22568,9.78717 52.81025,19.52751 80.40619,27.39578c8.02366,2.28802 19.0159,5.49002 24.4272,7.1246s10.75476,3.15315 11.87433,3.3506c1.11958,0.19745 6.6157,1.27971 12.2136,2.41693c5.5979,1.13858 11.02142,2.21474 12.04397,2.39591c1.02255,0.18252 4.99129,0.96148 8.82093,1.71736c3.82964,0.75657 7.87099,1.52263 8.99057,1.71737c1.11958,0.19542 6.31036,1.23222 11.53506,2.29005c10.70183,2.16656 14.55318,2.48072 14.63054,1.20847c0.02849,-0.46683 0.1642,-1.41542 0.29719,-2.12042c0.13232,-0.70431 0.43698,-3.91038 0.67854,-7.1246c0.24155,-3.21353 0.56318,-6.6157 0.69956,-7.54868c0.13707,-0.93298 0.41934,-3.68104 0.63647,-6.1068c0.61814,-6.92714 1.68615,-17.98995 2.05663,-21.3738c0.12282,-1.1189 0.43155,-4.78365 0.67854,-8.1424c0.24698,-3.35806 0.56114,-6.5648 0.69956,-7.12459c0.13842,-0.55911 0.42952,-3.61251 0.6575,-6.78534c0.22799,-3.17214 0.71653,-8.29235 1.08158,-11.38646c0.36505,-3.09411 0.49805,-5.90731 0.2972,-6.23437c-0.2022,-0.32569 -4.71445,-2.8573 -10.0294,-5.63996c-11.24126,-5.8856 -22.77022,-11.98629 -31.34009,-16.582l-6.04302,-3.24407l-4.17705,-6.78533l-4.17705,-6.78533l-7.67557,-1.63255l-7.67557,-1.65427l-6.57363,-8.863c-3.61794,-4.88204 -9.32169,-12.70146 -12.68043,-17.36638s-9.99412,-13.77558 -14.73706,-20.25014c-4.74295,-6.47389 -9.09031,-12.49655 -9.6691,-13.38c-0.98184,-1.49888 -0.89024,-2.02542 1.33603,-7.90898c8.3731,-22.12697 8.35546,-22.01637 4.13498,-27.54438c-1.27835,-1.67394 -2.33279,-3.30582 -2.33279,-3.62609c0,-0.31958 -0.33316,-0.57268 -0.74232,-0.57268s-1.55384,-0.57336 -2.5445,-1.27225c-0.99066,-0.69821 -3.02354,-1.41542 -4.51632,-1.59048c-2.32194,-0.27141 -3.11582,0.02036 -5.51308,1.97182c-2.41829,1.96978 -3.04458,2.17402 -4.5801,1.59048c-2.2663,-0.86174 -2.23441,-1.36792 0.23342,-3.73193c1.10669,-1.05987 1.80625,-2.26223 1.54773,-2.67207c-0.25852,-0.40915 -0.47972,-2.32126 -0.48786,-4.26186c-0.02511,-5.87678 -0.94656,-5.88153 -6.84912,0.02103c-2.8573,2.85798 -5.34209,5.19485 -5.51308,5.19485c-0.48922,0 -2.57775,-2.22219 -2.67207,-2.84169c-0.04681,-0.30602 -0.12281,-4.47425 -0.16963,-9.26605c-0.08414,-8.64113 -0.10924,-8.71848 -1.8239,-9.49879c-2.43525,-1.11008 -3.56094,-0.9927 -5.57686,0.59371c-1.30211,1.02459 -2.60082,1.36046 -5.00418,1.25122c-2.19845,-0.10042 -3.05747,-0.39898 -2.67207,-0.89023c0.31348,-0.40034 0.72332,-1.58506 0.91195,-2.62932c0.30738,-1.70312 0.01221,-2.06071 -2.79895,-3.47748c-3.14296,-1.58506 -8.10711,-1.92568 -12.29841,-0.86921c-0.93299,0.23478 -4.90716,0.60254 -8.82094,0.82714c-5.18806,0.29719 -7.25284,0.68124 -7.65453,1.39913c-0.30263,0.54079 -1.46495,0.97573 -2.56553,0.97573c-1.90125,0 -1.98336,-0.14588 -1.99354,-2.88376c-0.01017,-3.28207 -0.13706,-4.36636 -2.67002,-4.40979l0,0l0,-0.00001zm56.21241,95.09983c17.64661,0.06378 19.06271,0.30874 19.06271,3.13822c0,0.66225 -1.4507,2.41897 -3.22303,3.9226c-2.14824,1.82322 -2.9964,2.9618 -2.5445,3.4137c0.80542,0.80474 10.159,4.58349 14.80017,5.97923c3.1891,0.96013 3.25085,1.04698 2.79895,3.15926c-0.49873,2.33483 -1.46224,3.85949 -2.43865,3.85949c-0.3352,0 -1.79947,0.79049 -3.2651,1.76012l-2.67207,1.76011l-3.9226,-1.82389c-2.16452,-1.0022 -4.51564,-2.12856 -5.21656,-2.50243c-1.69837,-0.90517 -2.67478,0.21509 -4.11327,4.66491c-1.36928,4.23473 -1.63052,4.45797 -6.976,6.2554c-2.32059,0.78031 -4.53464,1.42085 -4.91937,1.42085c-1.27496,0 -0.72196,-1.95893 1.18743,-4.2198c3.97214,-4.70224 3.92396,-4.60113 1.63256,-4.60113c-1.22747,0 -2.88784,0.70771 -4.11327,1.7384c-3.3411,2.81184 -5.88628,3.22574 -8.9485,1.46292c-1.43103,-0.82374 -2.94619,-2.26834 -3.37163,-3.202c-0.72264,-1.58573 -0.47362,-1.982 4.00742,-6.2554c2.63746,-2.51465 6.15226,-5.22471 7.80313,-6.00095c1.65087,-0.77556 3.14704,-1.97453 3.32888,-2.67206c0.51229,-1.95893 -2.19573,-4.0651 -5.32241,-4.13499c-1.46903,-0.03256 -4.62624,-0.71992 -7.01875,-1.5267c-3.5718,-1.20439 -4.40029,-1.76418 -4.60113,-3.11718c-0.13435,-0.90584 0.08821,-1.85171 0.48786,-2.09938c0.40034,-0.24359 8.30389,-0.41255 17.55773,-0.3793l0,0l0,0zm23.07013,87.25531c0.27888,0 1.52534,1.4032 2.7562,3.11718c1.23086,1.71397 3.30649,4.08138 4.62217,5.25863c3.65051,3.26714 6.33411,6.31172 8.01483,9.09642c1.33875,2.2188 2.05867,2.64696 6.02199,3.64711c4.20419,1.06123 4.77958,1.06802 8.48166,0.02104c2.67953,-0.75724 4.45254,-1.7418 5.4493,-3.01133c2.06274,-2.62389 4.60589,-3.76247 8.88472,-4.00742c3.63965,-0.20831 3.66951,-0.1866 3.54126,1.6753c-0.18659,2.71278 -2.86884,5.75057 -5.8096,6.59466c-1.39913,0.4017 -3.84118,1.9915 -5.42826,3.52024c-1.58709,1.52941 -4.86848,3.66882 -7.29424,4.77076s-5.57211,2.61982 -6.99703,3.37164c-1.49549,0.78913 -3.31328,1.22882 -4.30462,1.03883c-1.22,-0.23342 -2.34094,0.21577 -3.8595,1.54773c-1.17454,1.03205 -3.32142,2.36334 -4.77076,2.96859c-1.45003,0.60593 -3.43474,1.04155 -4.41047,0.95401c-12.5264,-1.12229 -13.70773,-1.5518 -19.6985,-7.12459c-5.3957,-5.01844 -5.34345,-6.29747 0.2972,-6.29747c2.08852,0 4.38875,0.31348 5.11003,0.69957c1.54027,0.82441 3.38724,0.04614 6.2554,-2.62932c1.49277,-1.39303 2.43458,-1.70448 4.60113,-1.54774c3.11447,0.22528 4.70767,-0.75928 4.70767,-2.92583c0,-2.01796 -2.76231,-9.97512 -5.21657,-15.01255c-1.85714,-3.81336 -2.17945,-5.72546 -0.95401,-5.72546l0,-0.00001l0,0.00001z" id="svg_1"/>
    <path stroke="null" fill="#D3D3D3" d="m298.62298,349.37459c-4.85151,-1.41339 -12.48501,-3.66408 -16.96333,-5.00215s-10.58512,-3.12261 -13.57066,-3.96467c-5.10393,-1.4412 -5.28646,-1.5552 -3.0534,-1.9155c1.30617,-0.21102 5.7336,-0.25038 9.83873,-0.08821c6.04844,0.23885 8.05215,0.59101 10.56544,1.85715c3.11447,1.56877 11.40275,4.0081 11.90622,3.50462c0.14792,-0.1486 -1.55384,-2.00846 -3.78214,-4.13362c-4.2388,-4.04338 -7.51883,-5.84217 -10.69504,-5.86524c-2.41219,-0.01697 -13.0957,-2.80235 -17.41999,-4.54075c-3.14568,-1.26479 -3.38317,-1.54298 -4.56992,-5.34481c-0.68871,-2.20591 -1.25665,-4.37925 -1.26139,-4.8298c-0.00883,-0.73824 3.16603,-1.86461 12.20342,-4.3304l3.0534,-0.83256l-2.37487,-0.54757c-1.30618,-0.30127 -3.24135,-0.62561 -4.30054,-0.72061c-2.06682,-0.18523 -4.25509,-3.24678 -3.57994,-5.00757c0.19813,-0.51637 -0.01561,-1.17522 -0.47566,-1.46563c-0.46004,-0.28974 -1.38353,-1.38625 -2.0512,-2.43594c-1.60134,-2.51668 -1.01645,-5.00961 1.90328,-8.10372c2.68971,-2.85187 3.75501,-4.67916 3.75501,-6.43928c0,-3.44763 10.06468,-8.93628 20.11512,-10.96849c3.67832,-0.74435 8.10033,-1.53959 9.82787,-1.76826c3.02083,-0.39965 3.16807,-0.33791 3.84389,1.59999c0.84342,2.41897 0.095,6.31578 -1.97724,10.29131c-0.79389,1.52263 -1.26004,2.95162 -1.0368,3.17418c0.22256,0.22323 1.792,-0.72943 3.48562,-2.11771l3.07987,-2.52414l4.23133,2.42033c2.32737,1.3306 4.97229,3.05001 5.87745,3.82082l1.6468,1.40049l-1.3781,3.26307l-1.37878,3.26239l2.78538,-0.62358c1.53213,-0.34266 2.98962,-0.83391 3.23796,-1.09311c0.24902,-0.25852 -0.00135,-1.79676 -0.55639,-3.41913c-0.55437,-1.62238 -0.91127,-3.01133 -0.79185,-3.08936c2.88173,-1.85511 3.93549,-2.33619 4.19537,-1.91618c0.3698,0.59982 -14.37744,59.99591 -15.0553,60.63237c-0.25241,0.23817 -4.42811,-0.72467 -9.27962,-2.13873l0,0l0,0z" id="svg_2"/>
    <path stroke="null" fill="#D3D3D3" d="m231.48958,305.18647c-0.17099,-0.50687 -0.61611,-3.55484 -0.98998,-6.7738c-0.61814,-5.33599 -1.01034,-6.40603 -4.44507,-12.13082c-2.07224,-3.45238 -3.76043,-6.62113 -3.75161,-7.03978c0.02103,-1.05851 2.03152,-3.35535 4.05627,-4.63371c0.93298,-0.58896 3.37299,-3.77468 5.42216,-7.08117c2.04917,-3.30513 4.30258,-6.62045 5.00757,-7.36615c0.705,-0.74707 3.53245,-4.35619 6.28254,-8.02162c4.78434,-6.3755 5.00419,-6.8308 5.08086,-10.51727c0.04411,-2.11974 0.02443,-4.26458 -0.04478,-4.76805c-0.16625,-1.21526 1.92025,-3.47206 2.91226,-3.1484c0.43155,0.14046 1.91414,0.38948 3.29428,0.55301c1.38014,0.1642 4.1282,0.93909 6.1068,1.72279c1.97792,0.78371 4.87322,1.74112 6.43182,2.12788c2.31787,0.57472 2.97333,1.1033 3.58876,2.8953c0.4139,1.20576 2.39861,3.85747 4.41046,5.89239c3.64033,3.68376 3.67494,3.70004 7.60704,3.59622c5.53887,-0.14656 6.29272,0.68193 9.44993,10.37478c4.01353,12.32081 3.48359,13.57338 -6.79483,16.05817c-4.72259,1.14197 -9.4099,3.18435 -10.57969,4.61063c-0.1866,0.22731 -1.27157,0.78981 -2.41083,1.24986c-1.13993,0.46005 -2.82066,1.51245 -3.736,2.33619c-0.91534,0.82509 -3.71565,3.02694 -6.22351,4.8929c-3.63762,2.70599 -5.05032,4.31683 -6.9855,7.96666c-1.334,2.516 -3.09683,4.93362 -3.91785,5.37331s-1.49277,0.70635 -1.49277,0.59303c0,-0.18863 -0.81764,-0.03935 -5.76754,1.05173c-0.93298,0.20628 -4.05966,0.53944 -6.94818,0.74096c-4.06645,0.28431 -5.32105,0.15878 -5.56261,-0.55504l0,0l0,0z" id="svg_3"/>
    <path stroke="null" fill="#D3D3D3" d="m310.24015,254.34058c-1.72483,-1.89447 -3.1355,-3.99724 -3.1355,-4.6717c0,-1.68073 2.67885,-3.2936 6.94614,-4.1818c6.8654,-1.42899 8.8759,-3.64712 3.30582,-3.64712c-2.25545,0 -3.1355,-0.35759 -4.13227,-1.67869c-1.21797,-1.61423 -1.31703,-1.63323 -2.5886,-0.48244c-1.61152,1.45885 -5.51716,1.92704 -7.40552,0.88888c-1.97792,-1.08769 -8.28624,-8.61059 -8.77139,-10.45959c-0.44037,-1.68141 1.30889,-4.21301 2.91226,-4.21301c0.50144,0 0.9357,-0.22867 0.9642,-0.5089c0.21713,-2.12585 0.75995,-3.2875 2.2758,-4.86916c0.95876,-1.00151 1.74383,-2.42101 1.74383,-3.15518c0,-1.80897 3.87239,-6.39382 5.39976,-6.39382c0.67582,0 1.72959,-0.76335 2.34094,-1.69633c0.93231,-1.42288 1.64138,-1.69633 4.3969,-1.69633c4.35211,0 6.86065,1.87546 6.86065,5.12835c0,1.93246 0.42951,2.60082 2.59335,4.03252c3.47342,2.29887 5.08832,5.74107 5.21521,11.11913c0.11196,4.75855 1.1094,6.17329 4.36568,6.19297c3.34382,0.02036 3.40013,0.4804 1.17862,9.65892c-1.52874,6.3185 -2.36808,8.6513 -3.11311,8.6513c-0.56115,0 -2.76163,1.22136 -4.88951,2.71413c-3.61659,2.53636 -4.17841,2.71414 -8.59906,2.71414l-4.73005,0l-3.13415,-3.44627l0,0l0,0z" id="svg_4"/>
    <path stroke="null" fill="#D3D3D3" d="m289.31215,224.07325c-0.64529,-0.16964 -1.4792,-1.42425 -1.86393,-2.80506c-0.93977,-3.37706 0.47429,-5.19417 5.69221,-7.31323c4.53125,-1.84018 6.03623,-2.00846 7.00314,-0.78303c1.23697,1.56809 0.64326,3.33363 -1.73161,5.15007c-1.29736,0.99269 -3.44763,2.79691 -4.77823,4.01013c-1.32993,1.21322 -2.58386,2.16995 -2.78538,2.12652c-0.2022,-0.04274 -0.89295,-0.21645 -1.5362,-0.3854z" id="svg_5"/>
    <path stroke="null" fill="#D3D3D3" d="m283.06489,212.61485c-0.58625,-0.58693 -1.06597,-1.80829 -1.06597,-2.71413c0,-1.54502 -0.23274,-1.64816 -3.73194,-1.64816c-6.02944,0 -7.9748,-2.96247 -4.91936,-7.49032c1.11686,-1.65495 2.34908,-2.4719 4.59028,-3.04255c1.68411,-0.42883 4.5292,-1.5993 6.32121,-2.60014s3.51616,-1.66037 3.82964,-1.46699s2.76978,-1.70922 5.45745,-4.22862c6.23232,-5.84217 7.27116,-6.36599 12.39544,-6.25268c2.31923,0.05157 4.98044,-0.04343 5.91342,-0.21102c2.01117,-0.36098 5.09171,1.0429 5.68543,2.59064c1.30211,3.39266 -0.12078,7.16802 -3.39063,8.99803c-0.72739,0.40712 -1.23561,1.84018 -1.45274,4.0963c-0.31213,3.2495 -0.52179,3.57994 -3.28953,5.20232c-1.62576,0.95266 -3.26646,2.31244 -3.64644,3.02218c-0.90177,1.68548 -3.21149,2.38776 -4.45592,1.35503c-1.49888,-1.24375 -1.26208,-5.85574 0.37183,-7.25487c0.74639,-0.63918 1.35707,-1.39642 1.35707,-1.68276c0,-0.8251 -2.4909,1.36656 -9.22466,8.11661c-6.53156,6.54785 -8.4681,7.48761 -10.74457,5.21114l-0.00001,0l0,-0.00001z" id="svg_6"/>
    <path stroke="null" fill="#D3D3D3" d="m303.32391,149.42504c-0.49165,-0.22017 -0.66369,-0.41695 -0.93487,-1.0694c-0.18266,-0.43987 -0.33222,-0.8925 -0.33222,-1.00592s-0.1406,-0.29214 -0.31233,-0.39736c-0.81795,-0.50046 -1.16459,-1.93714 -0.46751,-1.93714c0.31051,0 0.77984,0.45156 0.77984,0.75038c0,0.14136 0.1359,0.16474 0.49347,0.08518c0.64273,-0.14303 3.27286,-0.27209 3.53068,-0.17325c0.15518,0.05952 0.16611,0.22199 0.04889,0.73201c-0.0829,0.36046 -0.17749,0.79199 -0.21029,0.95901c-0.22563,1.15138 -0.43228,1.75494 -0.67598,1.9754c-0.39934,0.36153 -1.21653,0.39584 -1.91968,0.08108l0,0l0,0.00001z" id="svg_7"/>
    <path stroke="null" fill="#D3D3D3" d="m347.81664,174.40868c0,-0.32773 -0.89362,-0.96623 -1.98674,-1.41881s-2.52482,-1.41678 -3.18164,-2.14349c-0.86106,-0.9513 -1.71059,-1.20779 -3.0378,-0.91602c-1.01373,0.22256 -2.03695,0.09025 -2.27512,-0.29448c-1.04019,-1.68276 4.07595,-6.17058 5.81164,-5.0985c0.36098,0.22392 1.10465,0.03461 1.65222,-0.41933c0.85835,-0.71246 6.06338,-0.60186 6.72223,0.14249c0.58761,0.66293 -2.07427,10.7439 -2.83694,10.7439c-0.47701,0.00067 -0.86785,-0.26803 -0.86785,-0.59576l0,0z" id="svg_8"/>
   </g>
   <g stroke="null" id="CA-NU">
    <path stroke="null" fill="#D3D3D3" d="m350.87004,388.79262c-3.32684,-0.80067 -8.32288,-3.6919 -11.91368,-6.89593c-1.08362,-0.96623 -3.19657,-2.30973 -4.69681,-2.98623c-1.50091,-0.67649 -2.76638,-1.64205 -2.8132,-2.14484s-0.12349,-1.29668 -0.16963,-1.76351c-0.15199,-1.51516 -2.97809,-1.4032 -3.46731,0.13775c-0.63714,2.00913 -4.06238,3.55008 -8.77343,3.94702c-2.24052,0.18863 -4.46475,0.73418 -4.94312,1.21254c-2.01456,2.01457 -5.7085,2.50786 -15.39388,2.0546c-14.41815,-0.67446 -18.69766,-1.41881 -18.77095,-3.26442c-0.01899,-0.47565 -0.15945,-2.08649 -0.3128,-3.57927c-0.15335,-1.49209 -0.4173,-4.51156 -0.58761,-6.71001c-0.35691,-4.60724 -1.58845,-6.24726 -5.15685,-6.86472c-4.04745,-0.70093 -12.22853,-6.44335 -12.22853,-8.58277c0,-0.31484 -0.05021,-0.80203 -0.11128,-1.08226c-0.06107,-0.27956 -0.66428,-2.95162 -1.3401,-5.93717c-0.67514,-2.98487 -1.23561,-5.63589 -1.24579,-5.88899c-0.019,-0.51433 0.13503,-0.4709 29.40356,8.22654c11.51607,3.42252 21.04403,6.11698 21.17295,5.98806c0.12892,-0.12893 3.62541,-13.81087 7.76853,-30.4044c4.1438,-16.59217 7.68778,-30.62424 7.87573,-31.18064c0.18728,-0.5564 1.55792,2.03831 3.04458,5.76753c2.62864,6.5906 2.69649,6.96447 2.41897,13.38271c-0.33519,7.75971 0.41798,9.82449 2.73788,7.50594c1.1698,-1.16979 1.334,-2.08513 1.14808,-6.37957c-0.11942,-2.75756 -0.35758,-8.80058 -0.52993,-13.42817l-0.31281,-8.41382l2.15163,-2.2534c2.00846,-2.10346 2.32873,-2.2127 4.80198,-1.64138c1.53349,0.35352 3.33703,1.41814 4.27883,2.52483c1.57284,1.849 1.59184,1.85239 0.54894,0.13027c-0.59304,-0.9798 -1.34078,-2.69649 -1.66037,-3.812c-0.82578,-2.87766 1.33535,-5.3292 5.37873,-6.10069c3.62676,-0.69278 6.30697,0.55097 9.10999,4.22591c2.55468,3.34991 1.89989,6.17465 -2.77181,11.95643l-3.72175,4.60588l0.15945,8.50203c0.17845,9.52593 0.80542,15.10279 2.14213,19.07424c0.83052,2.4658 0.77081,2.98352 -0.72807,6.31104c-1.18336,2.62796 -1.5233,4.29851 -1.23561,6.07016c0.60594,3.73533 4.86712,9.30676 11.09606,14.50976c7.18024,5.99687 9.71592,10.57697 8.22518,14.85445c-0.705,2.02135 -0.74775,2.03695 -4.53803,1.61016c-2.10481,-0.23681 -4.11666,-0.70568 -4.47154,-1.04155c-0.35419,-0.33655 -1.0083,-0.61204 -1.45409,-0.61204c-1.78251,0 -1.48667,2.23848 0.75792,5.74786c3.74007,5.84692 2.98555,9.50014 -2.49429,12.084c-2.58046,1.21593 -4.93158,1.36724 -8.37785,0.53807l0,0l0,0z" id="svg_9"/>
    <path stroke="null" fill="#D3D3D3" d="m397.97179,567.6126c-0.15539,-0.14385 -2.72567,-0.47837 -5.71054,-0.74299c-2.98419,-0.26395 -5.58026,-0.56861 -5.76753,-0.67718c-0.1866,-0.10857 -2.78267,-0.41391 -5.76754,-0.67853c-2.98419,-0.26531 -5.58025,-0.56861 -5.76753,-0.67515c-0.18659,-0.10585 -2.32465,-0.39219 -4.75041,-0.6351c-2.42576,-0.24292 -5.7845,-0.59507 -7.46386,-0.78303c-6.38365,-0.71382 -8.70559,-0.95537 -16.2848,-1.69769c-7.88727,-0.77217 -9.07267,-1.03069 -8.56038,-1.86732c0.15539,-0.25445 0.49872,-3.36281 0.76267,-6.90883c0.26395,-3.54534 0.5659,-6.90408 0.67107,-7.46386c0.10518,-0.55912 0.39219,-3.61252 0.63715,-6.78534c0.24495,-3.17214 0.572,-6.53088 0.72603,-7.46386s0.45393,-3.83304 0.66564,-6.44607c0.46072,-5.67864 0.95334,-11.10352 1.3876,-15.267c0.17574,-1.67937 0.45733,-4.5801 0.62628,-6.44606c1.10669,-12.22174 1.38353,-15.09737 2.09192,-21.71307c0.2402,-2.23915 0.48447,-4.77008 0.54419,-5.62436c0.08956,-1.28718 -0.82239,-2.04917 -5.32038,-4.43896c-6.87287,-3.65323 -19.44745,-10.29742 -29.5162,-15.59473c-4.29172,-2.25816 -9.02449,-4.77213 -10.51727,-5.58637c-2.62388,-1.4317 -4.02573,-3.19725 -9.23144,-11.62938l-2.44544,-3.96195l-7.74885,-1.62577l-7.74885,-1.62576l-3.774,-5.15075c-2.07631,-2.83288 -9.99072,-13.69959 -17.58758,-24.14968c-7.59754,-10.44873 -15.58591,-21.41858 -17.75247,-24.37766c-2.16587,-2.95773 -3.94159,-5.70647 -3.94363,-6.1068c-0.00475,-0.66021 8.76733,-24.84992 9.20362,-25.37986c0.81424,-0.9893 7.38787,4.93972 10.05655,9.07267c1.80082,2.78742 6.77922,6.99975 10.00565,8.4647c1.36385,0.6195 2.1272,0.6229 3.2651,0.01357c1.296,-0.69278 1.86597,-0.48311 4.46271,1.64477c1.63798,1.34214 3.56162,3.27121 4.27544,4.28765c1.6027,2.28123 4.19741,8.12137 4.19741,9.44654c0,1.74519 -1.74248,2.78945 -5.43641,3.259c-3.69258,0.46818 -6.77719,1.95146 -6.77719,3.25831c0,0.40034 0.67243,1.70991 1.49481,2.91023c1.27157,1.85443 2.516,2.49293 8.31203,4.2578c10.71336,3.26306 12.7666,3.5874 17.69479,2.8003c2.40879,-0.38405 5.18807,-1.06801 6.17805,-1.51855c1.61694,-0.73689 1.90871,-0.65207 2.88851,0.84206c0.59983,0.91466 2.92245,4.06916 5.16093,7.01128c5.29256,6.95293 7.04046,10.34831 6.67744,12.96881c-0.21713,1.56741 -0.11874,1.82457 0.40577,1.05579c0.42951,-0.63103 0.53739,-3.64711 0.28362,-7.93476l-0.40983,-6.91697l7.16463,-3.56298c4.11463,-2.04646 7.29423,-4.05899 7.46929,-4.72938c0.28702,-1.09651 0.13571,-1.09447 -2.50039,0.03054c-1.54231,0.65885 -4.40979,1.60676 -6.37143,2.10684c-3.3221,0.84749 -3.69393,0.81424 -5.42826,-0.4804c-4.58146,-3.42048 -0.71721,-9.90251 6.17058,-10.34899c1.43238,-0.09296 4.18044,-0.68532 6.1068,-1.31635c1.92703,-0.63104 4.34872,-1.04223 5.38348,-0.91399c2.24323,0.2782 4.09359,2.81117 4.2449,5.80961c0.05904,1.17318 0.63783,3.15857 1.2865,4.41182c1.69023,3.2651 6.87083,8.22518 8.68523,8.31746c0.84952,0.04207 1.85036,0.14928 2.22287,0.23613c0.3732,0.08617 1.02459,0.20424 1.44731,0.26123c0.42273,0.05632 2.03357,2.0451 3.57995,4.41861l2.81184,4.31547l4.15262,0.43427c2.28394,0.23952 6.17058,0.43426 8.63637,0.43426c2.46511,0 6.61774,0.61068 9.22806,1.35706c2.61031,0.74707 4.74634,1.35707 4.74769,1.35707s0.06311,-1.11347 0.13775,-2.47393c0.07463,-1.36046 0.60864,-3.6573 1.18743,-5.10257c0.57879,-1.44596 1.05173,-3.42728 1.05173,-4.40301c0,-1.7194 0.09838,-1.76215 3.12261,-1.34688c3.88256,0.53197 8.07319,1.93653 12.67432,4.24761c1.94807,0.97845 3.64712,1.87343 3.77536,1.98811c0.18524,0.16556 -2.28666,9.43568 -3.66137,13.72876c-0.15402,0.47837 0.44105,1.14401 1.32111,1.47852c0.8848,0.33656 1.98403,1.61627 2.45832,2.86206l0.85835,2.25341l0.46072,-2.0356c0.2972,-1.31025 0.0916,-2.76028 -0.57607,-4.0712c-0.61611,-1.20915 -1.04902,-3.90428 -1.06598,-6.63877c-0.03053,-4.87323 0.65004,-6.05252 3.1199,-5.40723c2.42032,0.63375 7.19652,-1.79065 9.38004,-4.75856c1.72008,-2.3389 2.05935,-3.4327 2.05935,-6.63334c0,-2.97062 -0.30466,-4.10852 -1.35707,-5.0605c-1.56062,-1.41203 -1.89311,-6.31714 -0.52179,-7.68846c1.16029,-1.16029 -3.0154,-4.92547 -6.87761,-6.19976c-2.33212,-0.76945 -3.36824,-1.68547 -5.27017,-4.65881c-2.02067,-3.15857 -2.36469,-4.28154 -2.34908,-7.65249c0.01085,-2.17335 0.34062,-4.55161 0.73281,-5.2851c0.55708,-1.04087 0.31349,-2.25884 -1.10872,-5.53683l-1.82254,-4.20284l1.31364,-3.80793c1.10805,-3.21081 1.76147,-4.05423 4.16823,-5.37534c2.61303,-1.43509 2.79149,-1.70311 2.1211,-3.17553c-0.63172,-1.38557 -0.41662,-1.9976 1.55655,-4.43625c5.31359,-6.56617 4.82641,-6.18551 7.28338,-5.68679c1.58437,0.32231 2.51532,1.01645 3.0534,2.27784c0.42544,0.99812 1.92296,2.81998 3.3282,4.05084c4.62285,4.04745 5.28035,5.4778 5.54294,12.06907c0.23138,5.80146 0.33519,6.13123 3.70208,11.72913c4.23676,7.04453 4.69816,10.86332 1.14943,9.51371c-1.37199,-0.52179 -1.47445,-0.39694 -1.201,1.46699c0.1642,1.11958 -0.10721,3.26646 -0.6039,4.77077c-0.84613,2.56282 -0.80881,2.80981 0.59779,3.94839c1.24579,1.0083 1.92296,1.09718 4.00063,0.52382c2.5981,-0.71788 4.87933,-0.29244 10.07486,1.87886c2.15163,0.89838 2.39047,1.19761 1.58913,1.97996c-0.51976,0.50755 -2.31855,1.11416 -3.99792,1.34757c-4.77823,0.66564 -5.127,1.78997 -1.97589,6.38161c2.49361,3.63286 3.04933,5.47372 3.29699,10.9271c0.13096,2.88512 1.19422,0.12281 1.69702,-4.41047c0.78302,-7.05471 1.7004,-9.21584 4.38807,-10.33881l2.38776,-0.99745l4.55771,4.98994c3.18775,3.48969 4.77551,5.84488 5.2817,7.83502c1.08226,4.25712 0.88684,6.82944 -0.63443,8.35071c-0.74639,0.74706 -1.35707,2.22762 -1.35707,3.29224c0,1.982 1.24783,6.27915 1.99896,6.88576c0.23138,0.18659 1.43442,1.94264 2.67342,3.90156c1.23969,1.95961 2.45969,3.5623 2.71074,3.5623c1.0497,0 3.60098,-2.28326 4.14177,-3.7075c0.32163,-0.84478 0.76742,-3.33296 0.99066,-5.52937c0.22392,-2.19641 0.84206,-4.90986 1.37403,-6.03012c0.53197,-1.11891 1.58438,-4.18927 2.33823,-6.8213c0.75385,-2.63271 2.29073,-6.14412 3.41505,-7.80313c2.42508,-3.57994 2.56215,-5.11818 0.6385,-7.16599c-1.61626,-1.72076 -3.58129,-9.86927 -2.91226,-12.07314c0.88006,-2.89598 2.3389,-3.79572 6.15633,-3.79572c2.74399,0 4.57807,0.50076 7.45437,2.0356c2.09802,1.11958 4.42268,2.0356 5.16499,2.0356c0.74368,0 2.32941,1.0368 3.52363,2.3043s3.49987,2.9808 5.12224,3.80793c2.85663,1.45749 5.34956,3.77196 5.3957,5.00961c0.01289,0.3318 -0.47972,0.97098 -1.09379,1.42017c-1.02459,0.7491 -0.99948,0.97912 0.30194,2.78877c0.781,1.08498 1.61559,3.07783 1.85443,4.42947c0.40373,2.27987 0.2877,2.50853 -1.60676,3.16942c-1.12298,0.39152 -2.38233,1.34689 -2.7976,2.12246c-0.41458,0.77624 -1.35435,1.41067 -2.08784,1.41067c-1.80015,0 -1.67666,1.29532 0.35012,3.65186c0.92484,1.07548 1.8714,2.96519 2.10278,4.19945c0.28023,1.49277 1.16232,2.75281 2.63542,3.76178c4.80605,3.2936 4.80876,10.10268 0.00814,18.30615c-5.68475,9.71456 -6.07898,10.14475 -9.03263,9.85706c-1.43917,-0.13978 -3.42592,-0.78439 -4.41454,-1.43171l-1.79744,-1.17793l1.0653,2.54992c1.18336,2.83152 0.44308,4.04474 -2.00303,3.28275c-2.51736,-0.78439 -3.4958,-0.74571 -4.56042,0.18252c-0.92348,0.80542 -1.41881,0.80067 -3.39267,-0.03324c-1.27089,-0.53605 -2.76841,-1.62306 -3.3282,-2.4149c-0.85903,-1.2139 -1.44256,-1.36928 -3.73194,-0.99066c-1.49277,0.2463 -3.25492,0.73213 -3.91581,1.07954c-1.07615,0.56522 -0.94452,0.87463 1.25189,2.94619c2.29684,2.1652 2.42305,2.49836 1.97114,5.17043c-0.34809,2.05935 -1.49752,4.05288 -4.12005,7.14427c-2.001,2.35926 -3.831,5.05576 -4.06577,5.99349c-0.23545,0.93841 -0.77692,1.70719 -1.20236,1.70855c-0.42612,0.00203 0.09431,0.69888 1.15622,1.54841c1.63051,1.3055 1.89853,1.96367 1.72279,4.23744c-0.11399,1.48124 -0.69685,3.45577 -1.296,4.38875s-1.69565,2.61303 -2.43797,3.73194c-0.74231,1.11958 -2.70667,4.39621 -4.36636,7.27998c-3.43473,5.96973 -4.54685,6.62995 -11.15576,6.62995c-4.85627,0 -6.21333,0.98116 -6.56685,4.74973c-0.21916,2.33687 -0.27141,2.37419 -3.27596,2.3328c-1.67937,-0.02307 -3.88799,-0.23138 -4.90783,-0.46208c-2.71888,-0.61543 -2.89734,0.515 -0.35826,2.26833c1.21729,0.84003 2.32872,1.61491 2.46918,1.72076c0.70974,0.53469 0.7871,5.91749 0.11467,7.95648c-0.8977,2.71957 -3.41913,4.02913 -8.13222,4.22523c-5.32784,0.22053 -5.07339,0.10382 -3.93617,1.80558c0.9608,1.43849 0.87734,1.6658 -1.44392,3.92464c-3.43881,3.3472 -7.40755,8.58005 -9.24502,12.19052c-0.85495,1.68005 -2.22898,3.66341 -3.05407,4.40911c-1.7893,1.61695 -3.39674,4.55975 -3.39674,6.2174c0,0.6575 -1.58031,4.53803 -3.51141,8.62348c-2.94755,6.23572 -3.4992,8.01212 -3.43745,11.05331l0.0726,3.62337l-2.8953,0c-1.59048,-0.00136 -3.02083,-0.11942 -3.17554,-0.26395l0.00001,-0.00001l0,0z" id="svg_10"/>
    <path stroke="null" fill="#D3D3D3" d="m534.99479,530.08564c-3.61522,-2.24323 -3.46866,-8.87182 0.28634,-12.93624c1.52399,-1.65019 3.24882,-1.53484 5.40859,0.36098c2.17334,1.90872 1.10058,9.77427 -1.68751,12.3717c-1.73365,1.61491 -1.73365,1.61491 -4.00742,0.20356l0,0l0,0z" id="svg_11"/>
    <path stroke="null" fill="#D3D3D3" d="m499.85016,522.49353c-1.57487,-2.94416 0.65072,-9.62296 3.95992,-11.87908c2.65103,-1.80762 3.39606,-1.96707 8.63773,-1.84968c3.19182,0.07124 3.54873,0.24495 4.31818,2.10277c0.76403,1.84358 0.648,2.32262 -1.29667,5.35295c-2.82813,4.4064 -6.85862,7.0391 -11.35526,7.41501c-3.02897,0.25377 -3.59758,0.1011 -4.2639,-1.14197l0,0l0,0z" id="svg_12"/>
    <path stroke="null" fill="#D3D3D3" d="m336.63768,219.603c-0.20741,-0.04525 -0.26572,-0.21546 -0.26572,-0.77559c0,-0.39478 -0.08199,-0.79973 -0.18221,-0.89994s-0.56134,-0.18889 -1.0249,-0.19739c-1.79259,-0.03219 -2.07121,-0.41922 -1.07683,-1.49621c0.57152,-0.61889 0.67203,-0.89159 0.64637,-1.75312c-0.08867,-2.98315 0.00122,-3.93092 0.59293,-6.25267c0.18478,-0.72517 0.24187,-0.79426 0.73246,-0.88627c0.4628,-0.08685 0.57714,-0.04373 0.87717,0.331c0.1898,0.23702 0.46493,0.72093 0.61114,1.07562c0.22776,0.55163 0.33207,0.64592 0.72169,0.65351c0.30049,0.00577 0.89508,0.31537 1.74613,0.90936c0.70984,0.49529 1.71622,1.19207 2.23642,1.54798c0.52019,0.35621 0.94746,0.75008 0.94974,0.87534c0.00228,0.12527 0.17234,0.50122 0.37792,0.83511c0.20574,0.33404 0.37641,0.72761 0.37884,0.87443c0.0041,0.23216 0.10887,0.25524 0.80185,0.17568c0.71637,-0.08214 0.85409,-0.04753 1.35804,0.34027c0.48709,0.37504 0.5539,0.50152 0.50881,0.9631c-0.07699,0.78409 -0.1816,0.954 -0.80656,1.30808c-0.56651,0.32099 -0.56681,0.32099 -1.24993,0.02536c-0.43896,-0.18995 -0.88263,-0.26966 -1.24127,-0.2232c-0.44261,0.05755 -0.62512,0.00091 -0.88355,-0.27422c-0.17916,-0.19071 -0.30382,-0.46811 -0.2771,-0.61661c0.07136,-0.39706 -1.29715,-1.09642 -1.62026,-0.82812c-0.12602,0.10461 -0.22927,0.34831 -0.22927,0.5413c0,0.54024 -0.27589,1.14485 -0.72822,1.59581c-0.22578,0.22518 -0.56256,0.61054 -0.74825,0.85652c-0.47647,0.63058 -1.06864,1.25569 -1.21152,1.27847c-0.38126,0.06119 -0.7604,0.06742 -0.99392,0.0164l0,0l0,0z" id="svg_13"/>
    <path stroke="null" fill="#D3D3D3" d="m395.58199,400.72259c-2.27444,-0.7396 -5.17517,-2.65849 -8.07183,-5.33937c-1.11958,-1.03612 -2.29412,-1.88565 -2.60964,-1.88768c-1.34282,-0.00747 -4.51496,-2.91837 -4.51496,-4.14177c0,-1.70515 10.75747,-16.21695 12.02225,-16.21695c1.7038,0 7.95038,6.57838 9.7702,10.28928c2.75553,5.61758 4.67035,10.92914 4.67035,12.95456c0,1.38557 -0.64664,2.27105 -2.60693,3.56841c-2.6836,1.77504 -4.95329,1.9786 -8.65944,0.77353l0,0l0,-0.00001z" id="svg_14"/>
    <path stroke="null" fill="#D3D3D3" d="m647.556,503.01623c-0.12553,-0.12552 -4.42675,-0.4078 -9.55986,-0.62764c-7.34512,-0.31484 -9.63449,-0.64528 -10.75339,-1.55248c-0.78167,-0.63511 -2.3898,-1.97453 -3.57384,-2.97876c-1.8049,-1.53213 -2.69106,-1.7954 -5.50019,-1.63256c-3.70411,0.21239 -5.91613,-0.42069 -13.01155,-3.7265c-4.26594,-1.98742 -4.89087,-2.52618 -5.67051,-4.88748c-0.77624,-2.35315 -0.7457,-2.7277 0.27345,-3.29767c1.26343,-0.70703 1.55181,-1.93314 0.45394,-1.93314c-0.38133,0 -2.2127,-1.04358 -4.06781,-2.3199c-1.85443,-1.27632 -4.29579,-2.52347 -5.42351,-2.77045c-1.29668,-0.28499 -2.41694,-1.15826 -3.04594,-2.37623c-1.4982,-2.89733 -4.96211,-5.03336 -8.79311,-5.42216c-2.85527,-0.29041 -3.59826,-0.10992 -4.88883,1.18404c-1.11144,1.11551 -2.31652,1.5267 -4.46679,1.5267c-2.49768,0 -3.38588,0.41187 -5.85506,2.71414l-2.91091,2.71413l-5.62775,0c-9.35562,0 -11.4645,-1.71397 -12.34795,-10.03754c-0.3067,-2.89462 -0.14249,-3.37978 1.75129,-5.18671c1.61288,-1.53891 2.08921,-2.57707 2.08921,-4.55635c0,-1.74858 0.37794,-2.76367 1.18743,-3.19386c0.65343,-0.34741 4.81216,-0.67582 9.2423,-0.73078c7.30306,-0.09024 8.25232,-0.24698 10.178,-1.68751c3.01133,-2.25273 6.22283,-3.78418 7.93613,-3.78418c1.20575,0 1.38828,-0.27345 1.01712,-1.5267c-0.53197,-1.7954 -0.93841,-3.3947 -1.01102,-3.98028c-0.02849,-0.2307 -1.30957,-1.25121 -2.84644,-2.26901c-2.62728,-1.7384 -2.77385,-2.00574 -2.44544,-4.45932c0.19271,-1.43578 0.79457,-3.46798 1.33807,-4.517s2.56689,-5.01232 4.498,-8.80804l3.51005,-6.90068l-1.32924,-4.79655c-1.26547,-4.56653 -5.22742,-10.87825 -8.5692,-13.65209c-0.64732,-0.5374 -1.90532,-2.12992 -2.7942,-3.53923c-0.92416,-1.4636 -3.05272,-3.35874 -4.96483,-4.42065c-2.67206,-1.48395 -3.46255,-2.33686 -3.91649,-4.23336c-0.51094,-2.13196 -0.77489,-2.35112 -2.57639,-2.14213c-1.10398,0.12756 -2.46511,0.62696 -3.0249,1.10872s-2.2853,1.51245 -3.83507,2.29209c-2.41083,1.21118 -2.93263,1.277 -3.61794,0.45054c-1.13723,-1.36996 -0.22799,-3.76111 2.25408,-5.93174c2.06682,-1.80693 2.08378,-1.87071 0.77285,-2.86205c-1.72144,-1.30211 -2.63542,-1.30007 -5.16771,0.01018c-2.65238,1.37131 -3.9762,0.83256 -3.9762,-1.62102c0,-1.30889 0.45462,-2.15638 1.3781,-2.56825c1.28446,-0.57268 1.15622,-0.8312 -1.86597,-3.77604c-5.51579,-5.37534 -8.63705,-7.8452 -9.5205,-7.53511c-0.46683,0.16353 -0.84816,1.34078 -0.84816,2.61575l0,2.31787l-6.95497,0.15945c-3.82557,0.08753 -8.97632,0.11875 -11.44821,0.06989c-3.7869,-0.07599 -4.48036,0.0855 -4.41047,1.02798c0.07125,0.96216 -0.7206,1.10805 -5.68475,1.0463c-3.17214,-0.03936 -8.9736,-0.30602 -12.89213,-0.59236c-4.36501,-0.31959 -8.06844,-0.2592 -9.56054,0.15606c-3.00047,0.8346 -5.25999,-0.57607 -6.43317,-4.01691c-0.65954,-1.93586 -1.05376,-2.23645 -2.73585,-2.08989c-8.00533,0.69482 -8.39617,0.66429 -10.42905,-0.83527c-4.49189,-3.31464 -8.16004,-8.60719 -8.16004,-11.77391c0,-1.01644 0.66157,-1.37742 3.14839,-1.71805c1.73162,-0.23816 4.39282,-0.43222 5.91274,-0.43222c2.37147,0 2.62389,-0.13164 1.77165,-0.92824c-1.47174,-1.37538 -5.22064,-2.46443 -8.48642,-2.46443c-2.10549,0 -3.01065,-0.31891 -3.36484,-1.18743c-1.19897,-2.93262 -2.18013,-8.58888 -2.00032,-11.53575c0.84885,-13.97235 1.11483,-15.55944 4.02777,-24.04722c4.23405,-12.33912 7.38041,-18.04491 11.2053,-20.32478c6.06473,-3.61387 15.89329,-2.60896 17.05765,1.74451c0.45122,1.68751 0.18727,2.36062 -1.77912,4.53803c-1.33264,1.47445 -2.51261,3.64983 -2.78945,5.14057c-0.26395,1.4222 -0.93434,3.2841 -1.49006,4.13837c-1.22543,1.88225 -2.94415,8.95121 -2.39318,9.84281c0.21781,0.35215 0.48583,2.88715 0.59575,5.63318c0.22324,5.58229 0.51161,6.38025 2.30091,6.38025c0.79184,0 1.41338,-0.67854 1.7099,-1.86597c0.25581,-1.02594 0.96352,-2.41761 1.57148,-3.09275c0.89024,-0.98795 0.94588,-1.45139 0.28499,-2.37487c-1.7038,-2.38165 -2.41694,-4.6432 -2.46511,-7.82349c-0.03868,-2.52889 0.26937,-3.54194 1.34078,-4.41047c0.7647,-0.62017 1.59455,-1.66172 1.84493,-2.31447c0.2497,-0.65343 0.76946,-1.18744 1.15418,-1.18744s0.69957,-0.61882 0.69957,-1.37403c0,-2.421 5.16568,-9.76409 7.9843,-11.34779c2.99776,-1.68479 9.4859,-2.88987 11.51675,-2.13873c1.22204,0.4519 2.37147,2.18487 6.48474,9.77155c2.59471,4.7857 4.51564,10.07351 4.16687,11.46518c-0.48447,1.92839 2.02,5.15957 3.99385,5.15482c0.81288,-0.00204 2.63746,-0.3257 4.05492,-0.71993c2.12584,-0.59032 2.5031,-0.94926 2.15434,-2.04917c-0.73553,-2.31787 3.37299,-5.65896 8.2055,-6.67405c3.82964,-0.80474 4.27815,-0.76538 6.44607,0.5564c1.28175,0.78099 3.09411,1.43238 4.02709,1.44731c2.11838,0.03393 5.10868,2.48479 5.76821,4.7287c0.67379,2.28937 2.32669,4.07052 3.77672,4.07052c0.86242,0 1.31907,0.75113 1.65087,2.71413c0.25242,1.49277 0.72332,2.71413 1.04766,2.71413s2.28869,1.68616 4.36636,3.74686c3.11107,3.08665 3.84321,3.53516 4.15059,2.5445c0.20559,-0.66157 0.80677,-2.20116 1.33739,-3.42184c1.06529,-2.45154 1.7099,-2.48479 7.59482,-0.3888c2.46375,0.87735 3.10225,1.52263 4.3304,4.3779c0.84545,1.96503 2.2222,3.81064 3.33296,4.46678c1.04087,0.61475 2.24051,1.76758 2.66595,2.56146c1.42357,2.66053 3.07715,3.18979 5.06932,1.62306c2.16249,-1.70041 3.80861,-1.38489 7.77532,1.48802c2.53025,1.8334 2.85255,2.34569 2.46239,3.92057c-1.16639,4.70427 -1.21253,5.59925 -0.28159,5.40112c0.5089,-0.10789 1.45681,-1.03612 2.10617,-2.06274c1.71058,-2.7026 3.793,-2.40337 7.0866,1.0178c3.11515,3.23592 4.57739,5.62504 4.67374,7.6335c0.18117,3.78214 0.39151,4.20419 2.64153,5.27695c1.28921,0.61475 2.81659,2.03221 3.3947,3.14975l1.05037,2.03153l-3.0975,1.81575c-2.54925,1.49346 -3.3791,1.68684 -4.68392,1.09244c-2.10481,-0.95877 -2.57028,-0.34741 -1.26004,1.65291c1.0273,1.56809 0.98388,4.37179 -0.10992,7.1341c-0.58829,1.48463 1.68684,3.55348 4.99808,4.54549c1.42831,0.42816 3.78689,1.58777 5.24031,2.57639c1.45342,0.98931 3.7109,1.84765 5.01708,1.90804s3.13821,0.42815 4.0712,0.81695c0.93298,0.38948 3.46594,0.57472 5.62979,0.41119l3.93278,-0.29719l3.64168,3.79028c3.19386,3.32346 3.98299,3.80047 6.41486,3.87443c1.52466,0.04682 3.14161,0.12349 3.59283,0.16963c0.45122,0.04682 1.02662,1.09244 1.27836,2.32466c0.25241,1.23153 0.6575,2.43864 0.89973,2.68156c0.24292,0.24224 2.56214,-0.29448 5.1555,-1.19286l4.71309,-1.63459l2.55739,1.45749c2.38708,1.36046 2.57097,1.6943 2.76706,5.02318c0.25784,4.39011 -0.11874,5.98806 -1.89311,8.03451c-1.29396,1.49142 -1.30957,1.67123 -0.25038,2.8417c0.90992,1.00423 0.98388,1.57216 0.38066,2.89802c-0.41255,0.90652 -0.57811,2.71549 -0.36641,4.01963c0.49872,3.07307 -1.76893,6.54038 -4.27951,6.54038c-1.44595,0 -1.62576,0.22527 -1.22407,1.5267c0.72535,2.34637 2.91226,6.47389 3.68104,6.94886c1.41882,0.87666 0.59983,2.28326 -2.10956,3.62405c-2.75349,1.36181 -2.83559,1.36385 -5.17042,0.11263c-1.30482,-0.69956 -3.87307,-1.6563 -5.70647,-2.12652c-2.88308,-0.73892 -3.64711,-1.32585 -5.64539,-4.33718c-2.59675,-3.91243 -7.32409,-8.46335 -8.79176,-8.46335c-0.53197,0 -1.37131,-0.39355 -1.86393,-0.87531c-2.74534,-2.68224 -7.34241,-4.32633 -7.34241,-2.62592c0,0.31348 -0.80677,0.93773 -1.79472,1.3876l-1.79472,0.81695l1.84697,1.92839c2.20523,2.30159 2.19574,5.39027 -0.019,6.48814c-1.06597,0.52858 -1.28989,1.04155 -0.89566,2.05121c0.28973,0.74095 0.54825,1.11415 0.57404,0.82916c0.07803,-0.84816 4.95668,1.46088 5.88424,2.7847c0.47022,0.67175 2.08852,2.59946 3.59555,4.2829c2.66731,2.97944 3.57858,3.43067 10.68282,5.28239c2.11567,0.55164 2.91566,1.14672 3.23118,2.40336c0.2307,0.91873 1.03069,1.99692 1.77776,2.39726s2.10956,1.91618 3.02693,3.36959s3.8215,4.83863 6.45286,7.5229l4.78501,4.88069l-0.13978,9.44722c-0.07667,5.19553 -0.3569,9.58225 -0.62425,9.74645c-0.73756,0.45598 -13.04548,-3.48087 -19.58518,-6.2649c-3.19386,-1.35978 -6.74869,-3.2841 -7.89948,-4.27611c-1.93586,-1.66852 -3.85814,-2.01796 -7.91645,-1.43782c-1.15962,0.16557 -0.38066,1.31772 1.38488,2.04985c1.04223,0.43155 2.44747,1.81169 3.12397,3.06765c1.00898,1.87411 2.15977,2.63678 6.41825,4.25576c2.85323,1.08566 8.47148,4.09292 12.48365,6.68424l7.29627,4.71037l-0.17167,4.0712l-0.17099,4.0712l-3.87375,0.08482c-2.14145,0.04614 -3.98638,-0.01764 -4.11191,-0.14317l0,0l0,0z" id="svg_15"/>
    <path stroke="null" fill="#D3D3D3" d="m548.83551,500.48937c-2.54992,-1.7194 -3.34517,-3.50801 -2.18148,-4.90986c1.12229,-1.35232 2.46511,-1.23493 4.78773,0.41797c2.07224,1.47582 2.58725,3.8154 1.15622,5.24642c-1.03883,1.03816 -1.13044,1.01984 -3.76247,-0.75453l0,0z" id="svg_16"/>
    <path stroke="null" fill="#D3D3D3" d="m556.25595,492.75274c-1.24239,-0.23749 -1.5233,-0.67514 -1.35706,-2.11295c0.15877,-1.37539 0.63171,-1.86258 1.95892,-2.01729c2.28055,-0.2653 4.93633,1.84222 4.32633,3.43271c-0.44105,1.15079 -1.65426,1.32314 -4.92819,0.69753l0,0z" id="svg_17"/>
    <path stroke="null" fill="#D3D3D3" d="m545.27593,417.35141c-4.56924,-4.56924 -3.06358,-18.66577 2.37487,-22.22875c2.40879,-1.57827 6.09526,-0.73417 8.55562,1.9596c1.90872,2.08989 1.95553,2.31991 1.95553,9.67453c0,8.40431 -0.28973,9.00074 -5.53072,11.39054c-3.49309,1.59252 -5.14532,1.41338 -7.3553,-0.79592l0,0z" id="svg_18"/>
    <path stroke="null" fill="#D3D3D3" d="m563.92949,404.89761c-2.02339,-0.94791 -3.72176,-3.53787 -3.04187,-4.63778c0.81153,-1.31364 6.18958,-0.93637 7.2827,0.51162c1.30346,1.72551 1.02323,2.77588 -1.0178,3.81336c-1.28243,0.65274 -2.29073,0.74978 -3.22303,0.3128l0,0z" id="svg_19"/>
    <path stroke="null" fill="#D3D3D3" d="m523.33081,386.93344c-0.71111,-0.7111 -0.55979,-1.11686 1.15757,-3.11447c1.0022,-1.16504 1.78251,-3.17757 2.06817,-5.33327c0.44173,-3.3282 2.00914,-6.70662 3.11243,-6.70662c1.01441,0 1.34079,2.1462 0.54962,3.61183c-0.43902,0.81221 -0.7335,2.47597 -0.65411,3.69733c0.23952,3.70004 -4.46203,9.61685 -6.23368,7.8452l0,0l0,0z" id="svg_20"/>
    <path stroke="null" fill="#D3D3D3" d="m314.25135,181.75186c-0.39083,-0.32296 -0.72077,-0.70954 -0.73307,-0.85894c-0.13605,-1.63514 -0.37868,-2.04799 -1.75798,-2.99318c-0.26465,-0.18129 -0.69799,-0.73656 -0.96295,-1.23368c-0.46948,-0.88111 -0.47632,-0.92104 -0.26663,-1.587c0.11813,-0.37595 0.38142,-0.80869 0.58488,-0.96174c0.3676,-0.27665 0.37443,-0.27498 1.18084,0.33389c0.77938,0.58852 0.82084,0.60158 1.06271,0.33434c0.13848,-0.1529 0.3219,-0.53249 0.40784,-0.8433c0.13392,-0.48482 0.11342,-0.61175 -0.14318,-0.89114c-0.72715,-0.79153 -0.90769,-1.28409 -0.7478,-2.04115c0.17339,-0.82083 0.63301,-1.54889 0.97783,-1.54889c0.13028,0 0.59551,0.20513 1.03371,0.45581c0.68388,0.39114 0.82266,0.42469 0.97966,0.2355c0.37245,-0.44898 2.03978,-0.80094 2.39812,-0.50653c0.10811,0.08898 0.1898,0.50061 0.1898,0.95643c0,0.62162 -0.05937,0.82326 -0.26572,0.90313c-0.25311,0.09808 -0.25311,0.11221 0,0.29881c0.39007,0.28713 0.33769,0.45081 -0.41755,1.30095c-0.3758,0.42302 -0.68327,0.83875 -0.68327,0.92393c0,0.08503 0.20498,0.22608 0.45551,0.31339c0.35075,0.12223 0.45612,0.25144 0.45779,0.5615c0.00122,0.22153 0.10082,0.57349 0.22123,0.78226c0.45217,0.78364 0.56104,1.16763 0.63225,2.22852c0.06514,0.971 0.03173,1.15518 -0.3058,1.6898c-0.39281,0.62239 -1.23125,1.24401 -1.67765,1.24401c-0.14137,0 -0.2182,0.06256 -0.17082,0.13908c0.1485,0.24006 -0.62998,1.01078 -1.19663,1.18479c-0.51306,0.15761 -0.58124,0.13468 -1.25312,-0.42059l0,0l0,0z" id="svg_21"/>
    <path stroke="null" fill="#D3D3D3" d="m412.70817,325.58996c-1.44324,-1.13518 -1.78793,-1.97656 -1.78793,-4.36636c0,-1.6278 -0.31484,-3.78893 -0.69957,-4.8013c-1.59659,-4.19741 -0.34945,-19.76771 2.00914,-25.09962c0.78235,-1.76826 1.6088,-4.37858 1.83611,-5.80011c0.57675,-3.6064 2.64831,-4.78298 10.16714,-5.77296c2.04714,-0.26938 3.53923,0.01086 5.57076,1.04766c1.5267,0.77828 3.40759,1.4161 4.18112,1.4161c1.9596,0 5.95684,1.75604 8.61941,3.78689c2.23373,1.7038 2.2378,1.71669 1.14265,3.88053c-0.60458,1.19422 -1.53416,2.66867 -2.06478,3.27528c-0.53129,0.60729 -1.12297,1.98132 -1.315,3.0534s-1.37674,3.47613 -2.63203,5.34209c-1.28514,1.9094 -2.65645,5.12768 -3.13686,7.36277c-0.46954,2.18352 -1.17996,4.06916 -1.57894,4.19062s-2.68835,0.38948 -5.08764,0.59643c-2.39998,0.20695 -4.59028,0.61068 -4.8678,0.89838c-0.40984,0.42408 -1.04902,5.28916 -1.24783,9.49539c-0.05089,1.08973 -3.59894,2.90073 -5.68135,2.90073c-0.90178,0 -2.4434,-0.63307 -3.4266,-1.40592l0,0l0,0z" id="svg_22"/>
    <path stroke="null" fill="#D3D3D3" d="m510.77591,303.07826c-3.1484,-5.11953 -7.67218,-14.88566 -7.32002,-15.80236c0.58761,-1.53009 14.25055,-1.35163 17.12957,0.22392c3.90157,2.13467 8.73544,7.16802 11.00649,11.45975c1.32992,2.51329 -0.61136,3.7265 -5.67186,3.54262c-3.23932,-0.11671 -4.9024,0.19203 -7.05403,1.31432c-4.13973,2.15706 -6.43793,1.94739 -8.09015,-0.73824l-0.00001,0l0,-0.00001l0.00001,0z" id="svg_23"/>
    <path stroke="null" fill="#D3D3D3" d="m443.15057,270.99925c-1.49278,-0.91873 -3.6478,-1.67258 -4.78977,-1.6753c-3.47477,-0.00543 -4.48578,-1.27496 -4.74091,-5.95141c-0.12485,-2.29141 -0.53197,-4.73752 -0.90652,-5.43641c-1.06123,-1.98403 -1.47242,-8.31611 -0.63986,-9.87063c0.40984,-0.76538 0.79931,-3.09004 0.86649,-5.16499c0.10246,-3.183 -0.16828,-4.14516 -1.72958,-6.14887c-1.01848,-1.30618 -1.95757,-2.98555 -2.08717,-3.73193c-0.20356,-1.16979 -0.93705,-1.41339 -5.31767,-1.7669c-2.79555,-0.22595 -5.57822,-0.62493 -6.18279,-0.88752c-1.54095,-0.66836 -7.77328,-8.55495 -8.23739,-10.42363c-0.21035,-0.84817 -0.09025,-2.6015 0.26734,-3.89614c0.78031,-2.82541 2.43118,-3.41099 7.8262,-2.77724c5.60129,0.65818 8.94035,2.77181 10.03008,6.34904c0.55843,1.8334 2.29616,2.33619 6.82062,1.97385c5.41876,-0.43426 7.77192,0.88413 7.79227,4.36501c0.00747,1.21254 0.53944,1.9976 1.71669,2.53432c2.60014,1.18472 3.31667,3.37909 2.17945,6.6788c-0.94791,2.75213 -0.94045,2.78334 1.31228,4.98518c1.24647,1.21865 2.2663,2.89734 2.2663,3.73058c0,1.26207 0.47973,1.58505 2.88377,1.93925c1.58641,0.23409 5.47916,0.93162 8.6513,1.54977l5.76753,1.12433l3.79775,-1.80219c2.08853,-0.99133 4.12073,-1.80218 4.51564,-1.80218s2.01525,-1.08362 3.6003,-2.40744c2.82134,-2.35722 2.99708,-2.40472 8.37649,-2.27783c6.347,0.14995 8.28964,0.70974 12.95863,3.73261c5.61419,3.6349 8.61805,8.68794 6.45217,10.85381c-0.44511,0.44512 -0.39897,1.39914 0.13571,2.81592c0.67853,1.79743 0.63172,2.33958 -0.29109,3.36417c-0.60525,0.67174 -1.2105,2.29005 -1.34553,3.5969c-0.21374,2.06885 -0.66632,2.58453 -3.51888,4.00742c-5.63386,2.81252 -13.84479,2.79081 -15.10754,-0.038c-0.54893,-1.23018 -0.78167,-1.30075 -1.64205,-0.49601c-0.55165,0.51501 -2.36876,1.61288 -4.03863,2.43865c-2.62999,1.30143 -4.3969,1.53756 -13.21443,1.76283c-10.87893,0.27684 -13.39629,-0.23884 -14.24649,-2.91837c-0.59236,-1.86597 -1.07276,-1.73569 -3.73465,1.01101c-1.26614,1.3055 -2.62321,2.36469 -3.01676,2.35383c-0.39287,-0.01289 -1.93653,-0.77488 -3.4293,-1.69429l0,0l0,0z" id="svg_24"/>
    <path stroke="null" fill="#D3D3D3" d="m420.08044,268.82862c-1.39643,-0.34402 -8.90643,-5.45812 -10.807,-7.35869c-1.65834,-1.65834 -1.28854,-3.79843 1.59319,-9.20702c2.28123,-4.28155 3.03237,-5.12225 5.25863,-5.89035c3.07308,-1.05919 6.30629,-0.33044 9.19752,2.07224c1.7608,1.4636 1.8714,1.91754 2.30091,9.44519c0.44987,7.87573 0.44444,7.91441 -1.30957,9.6691c-1.68344,1.68411 -3.2556,2.00303 -6.23369,1.26953l0.00001,0z" id="svg_25"/>
    <path stroke="null" fill="#D3D3D3" d="m393.50907,256.37211c-3.09479,-1.42357 -6.3375,-4.81623 -6.3375,-6.62995c0,-0.63511 0.97777,-2.01185 2.17334,-3.06086l2.17335,-1.90736l-6.31647,0.20627c-7.14428,0.23342 -8.2089,-0.37183 -8.2089,-4.6717c0,-3.24067 -0.86377,-4.49528 -4.73887,-6.87897c-1.87208,-1.15215 -3.40353,-2.27919 -3.40353,-2.50446c0,-0.22596 0.51569,-1.28379 1.14605,-2.35044c1.06394,-1.80219 1.36521,-1.91143 4.24083,-1.53756c3.67358,0.47837 5.46966,1.29668 5.46966,2.49158c0,0.4804 1.36928,2.30158 3.04186,4.04745c2.25612,2.35519 3.55077,3.17485 5.01504,3.17485c1.76351,0 2.00303,-0.26191 2.26019,-2.46579c0.30806,-2.63542 -0.64664,-3.98977 -4.37993,-6.21468c-1.02662,-0.61136 -1.86596,-1.49685 -1.86596,-1.96775s1.52059,-2.05799 3.37977,-3.52769c2.53025,-1.99964 3.85203,-2.60353 5.25863,-2.40269c1.03273,0.14792 3.52973,0.42341 5.54837,0.61204c2.01863,0.18931 4.40843,0.82849 5.31155,1.42017l1.64206,1.07547l-0.37659,12.5834c-0.22324,7.46455 -0.67514,12.9437 -1.11144,13.46889c-0.42612,0.51365 -0.54961,1.87479 -0.29312,3.23999c0.68667,3.66069 -0.51094,5.22335 -3.94703,5.15482c-1.57216,-0.02985 -4.12888,-0.63986 -5.68136,-1.35503l0,0l0,0z" id="svg_26"/>
    <path stroke="null" fill="#D3D3D3" d="m344.1641,252.05324c-2.78674,-1.71261 -4.6432,-1.7384 -6.46439,-0.09024c-0.61,0.55232 -1.46902,0.78235 -1.90803,0.51093c-1.04426,-0.64528 2.6551,-16.14366 3.79368,-15.89193c0.49668,0.10993 0.7681,-1.1094 0.7681,-3.45373c0,-4.54753 3.18096,-20.62538 4.4851,-22.6698c2.00642,-3.14364 7.34037,-0.53468 5.59044,2.73517c-0.46683,0.87395 -0.49262,1.83815 -0.07125,2.77927c0.72739,1.62509 0.5089,5.96092 -0.3888,7.73257c-0.32705,0.6446 -0.56318,2.39318 -0.5245,3.88664c0.05971,2.32329 0.3033,2.74738 1.69633,2.94415c0.89431,0.12621 2.9774,-0.1486 4.62828,-0.61068c2.7087,-0.7586 3.13007,-0.71314 4.3019,0.45801c2.50718,2.50718 3.107,11.91029 0.94519,14.82256c-0.56521,0.76199 -1.65358,2.3674 -2.41693,3.56841c-3.15925,4.9594 -9.39362,6.37617 -14.43512,3.27867l0,0l0,0z" id="svg_27"/>
    <path stroke="null" fill="#D3D3D3" d="m362.71859,251.95078c-0.48176,-1.26682 -0.35487,-2.15163 0.50347,-3.52633c0.63104,-1.00898 1.17251,-1.89447 1.20304,-1.96843s1.02459,-0.30398 2.20795,-0.51229c2.02881,-0.35759 2.23102,-0.19813 3.55687,2.79895c0.85427,1.9311 1.16097,3.42252 0.78167,3.80114c-0.34334,0.34266 -2.19505,0.73078 -4.11666,0.86106c-3.19996,0.21713 -3.54737,0.09567 -4.13634,-1.4541z" id="svg_28"/>
    <path stroke="null" fill="#D3D3D3" d="m494.72113,230.65027c-0.23613,-0.743 -0.27616,-1.59727 -0.09092,-1.89786c0.51636,-0.8346 -0.37862,-1.87275 -2.61168,-3.02897c-1.93178,-1.00084 -2.09191,-0.97166 -3.59554,0.65003c-1.16098,1.25325 -1.96504,1.57624 -3.06765,1.2329c-0.82171,-0.25513 -2.25681,-0.62357 -3.18979,-0.81763s-2.36197,-1.14062 -3.17621,-2.10278c-1.25325,-1.48124 -1.64341,-1.61423 -2.5445,-0.86581c-0.58558,0.48583 -1.06462,1.68887 -1.06462,2.67274c0,2.33212 -2.16045,3.70276 -4.89087,3.10226c-1.13451,-0.24903 -5.82385,-0.50008 -10.42023,-0.55776c-7.3207,-0.0916 -8.59363,-0.28091 -10.2635,-1.5233c-1.63255,-1.21594 -1.93517,-1.963 -2.1082,-5.22132c-0.13164,-2.47732 0.1676,-4.51835 0.86038,-5.8571c1.62848,-3.14907 5.62775,-6.82604 7.42451,-6.82604c2.90277,0 3.32278,-1.58302 1.00491,-3.7869c-3.77468,-3.58876 -4.9309,-7.42315 -3.21829,-10.67672c1.13044,-2.14688 1.88429,-2.478 5.66644,-2.48818c4.12412,-0.01153 6.84843,1.98335 7.89812,5.78585c0.38202,1.38557 1.43171,3.25493 2.33144,4.15466c1.3435,1.3435 1.88158,1.50431 3.01201,0.89974c1.30957,-0.70093 1.2295,-0.88752 -1.64544,-3.84525c-1.66173,-1.7099 -3.38453,-3.98502 -3.82829,-5.05575c-0.71856,-1.73433 -0.60796,-2.20659 1.00559,-4.32361l1.81236,-2.37623l-4.63302,0c-5.77636,0 -7.64911,-1.09583 -7.64911,-4.47628c0,-1.30007 0.63239,-3.60233 1.40457,-5.11614c0.77217,-1.51381 1.24239,-2.9143 1.04426,-3.11243c-1.06869,-1.06937 1.96232,-4.2578 6.03216,-6.34565l4.4851,-2.30022l4.49868,2.36265c5.72478,3.00726 5.37398,2.8858 5.4113,1.87343c0.01764,-0.47701 0.25445,-1.40117 0.52519,-2.0546s0.2307,-1.21729 -0.08889,-1.25461c-0.32027,-0.03731 -1.46563,-0.1452 -2.54586,-0.2402c-2.79691,-0.24563 -7.41094,-5.40587 -8.92339,-9.98054c-0.65953,-1.99218 -2.21948,-4.96347 -3.46731,-6.60349c-1.24782,-1.64001 -2.26901,-3.22235 -2.26901,-3.51684c0,-0.29448 -0.5849,-0.7206 -1.30007,-0.94791c-1.92703,-0.61136 -2.67885,-3.62608 -2.15909,-8.65198c0.60864,-5.88084 1.30821,-6.65505 5.66304,-6.271c4.52174,0.39898 5.75192,1.296 10.71743,7.81874c2.29615,3.01608 4.27408,5.38484 4.39622,5.2627c0.75113,-0.75181 -1.08227,-4.88612 -3.27053,-7.37362c-3.36892,-3.82896 -3.22643,-5.87338 0.54214,-7.7882c1.49278,-0.7586 3.93007,-2.20863 5.41606,-3.22304c1.48531,-1.0144 3.24135,-1.84425 3.90156,-1.84425c0.75453,0 1.19965,-0.51297 1.19965,-1.38421c0,-0.76131 1.24172,-2.60082 2.75959,-4.08884l2.75892,-2.70463l-1.74112,-2.07021c-0.95808,-1.13858 -1.75129,-2.58114 -1.7635,-3.20539c-0.01222,-0.62425 -0.71993,0.23885 -1.57217,1.91821c-4.19537,8.25572 -7.43401,11.1612 -12.54336,11.25212c-1.74044,0.03054 -4.91394,0.4743 -7.05064,0.98523c-5.38348,1.2865 -7.5765,0.49058 -7.85674,-2.85255c-0.11331,-1.35639 0.25242,-3.56434 0.81356,-4.90715s0.84274,-2.44137 0.62561,-2.44137c-0.72535,0 -2.92855,2.90955 -2.92855,3.86832c0,0.52044 -0.77963,1.66919 -1.73297,2.55264c-1.39439,1.29193 -2.10685,1.49888 -3.64576,1.05784c-4.54482,-1.30346 -7.84452,-5.10529 -6.17601,-7.11578c0.7301,-0.88006 0.64121,-1.04087 -0.57676,-1.04087c-0.79184,0 -1.66919,-0.04614 -1.94874,-0.10246c-1.1223,-0.22595 -2.16317,-2.39794 -2.18352,-4.55635c-0.01697,-1.81236 0.53807,-2.79556 2.69242,-4.76398c2.91226,-2.66257 3.30717,-3.46934 1.69633,-3.46934c-0.55979,0 -1.62848,-0.61068 -2.37487,-1.35707s-2.06206,-1.35706 -2.9238,-1.35706c-5.88288,0 -4.28018,-6.31376 2.24527,-8.84401c1.30618,-0.50686 3.48427,-2.08242 4.84066,-3.50258c2.09463,-2.19302 2.89666,-2.58182 5.33191,-2.58182c2.69174,0 2.8417,-0.09975 2.45561,-1.63798c-0.31891,-1.27022 0.04479,-2.02135 1.62306,-3.34924c1.11822,-0.94113 2.03356,-2.3043 2.03356,-3.02897c0,-1.70041 1.38285,-2.83085 3.07647,-2.51533c0.73349,0.13707 1.67326,0.27209 2.08717,0.30059c0.41458,0.0285 1.84154,0.79049 3.17214,1.69294c2.59335,1.76012 3.19928,1.40592 3.19928,-1.868c0,-0.81017 1.06869,-2.97672 2.37487,-4.81351s2.37487,-3.88461 2.37487,-4.54957s1.20982,-2.4814 2.68902,-4.03591c2.16588,-2.27648 3.03644,-2.76028 4.47425,-2.48547c1.48667,0.2843 1.8965,0.02307 2.44951,-1.56334c0.72264,-2.0736 3.55755,-3.45984 6.14547,-3.00523c5.13718,0.90245 6.75616,0.762 9.7831,-0.84952c3.37299,-1.7954 8.60923,-2.47257 10.69097,-1.38217c0.91873,0.48108 2.42372,0.32977 5.25999,-0.52858c2.87766,-0.87124 4.39486,-1.01916 5.49883,-0.53672c0.83867,0.36641 3.20403,0.55843 5.2566,0.42748c5.04489,-0.32231 6.29679,0.08549 7.30237,2.37758c0.92891,2.1177 2.76638,3.31463 5.88221,3.83235c2.61981,0.43562 3.74754,1.65562 4.49121,4.86034c0.94723,4.08612 0.76199,7.67353 -0.66429,12.83242c-1.00422,3.63354 -1.82729,5.16906 -3.53651,6.60145c-1.22543,1.02594 -2.58861,1.86597 -3.03101,1.86597c-1.22407,0 -4.69545,4.25508 -6.65641,8.158c-0.96352,1.91889 -1.75197,3.63015 -1.75197,3.80318c0,0.87734 3.42659,-2.35519 4.05288,-3.82286c0.39829,-0.93502 1.63323,-2.30905 2.74466,-3.0534c1.11076,-0.74435 2.02067,-1.58234 2.02135,-1.86257c0.0034,-0.76878 3.25221,-0.61 3.74279,0.1832c0.23545,0.38066 0.42748,2.39387 0.42748,4.47357c0,2.8702 -0.39762,4.38265 -1.65223,6.27779c-2.53839,3.83643 -4.65881,8.25029 -4.37382,9.10524c0.14113,0.4234 -1.17115,3.98842 -2.91498,7.92188c-1.74451,3.93345 -3.48766,7.91509 -3.87239,8.84807c-0.85699,2.07496 -2.32126,9.54221 -2.59471,13.22733c-0.26531,3.57655 -3.46663,6.64352 -6.60281,6.32528c-1.91278,-0.19406 -2.16045,0.00136 -2.57707,2.0356c-0.25377,1.23697 -1.14536,2.97741 -1.98064,3.86696c-1.42492,1.51653 -7.00653,3.94432 -7.63146,3.31939c-0.15538,-0.15606 -0.86717,0.36505 -1.5803,1.15826c-1.2804,1.42424 -1.27768,1.45477 0.2307,2.46171c1.8205,1.21594 2.01253,3.94296 0.40372,5.72072c-0.90177,0.99676 -0.93569,1.25596 -0.16963,1.31907c0.52451,0.04274 1.25868,0.14927 1.63187,0.23613c0.3732,0.08685 1.24308,0.20424 1.93314,0.26123c0.69007,0.05632 2.1401,1.05173 3.22304,2.21066c2.48818,2.66325 2.82202,7.52629 0.61136,8.90643c-1.77573,1.1094 -1.71126,1.74315 0.33926,3.35671c0.93299,0.73417 1.69634,1.91685 1.69634,2.62931c0,0.8156 -0.62832,1.45274 -1.69634,1.72076c-1.36928,0.34334 -1.69633,0.84613 -1.69633,2.60489c0,3.04797 -3.0249,6.31579 -6.11833,6.60959l-2.36334,0.2246l0.23138,5.10393c0.20899,4.59299 0.07261,5.2722 -1.35706,6.78533c-4.17434,4.41793 -4.18587,4.44236 -2.89802,6.40807c0.64393,0.98387 2.11838,2.27783 3.27596,2.87562s2.44679,1.5552 2.8668,2.12788c1.01577,1.38624 0.6195,4.86101 -0.95876,8.41042c-3.01337,6.77448 -12.74693,12.77882 -14.05175,8.66826l0,0l0,0z" id="svg_29"/>
    <path stroke="null" fill="#D3D3D3" d="m367.82862,205.25684c-1.87071,-1.87072 -2.20319,-4.83387 -0.94723,-8.43756c0.92145,-2.64289 2.14417,-2.71413 3.91378,-0.22934c2.668,3.74618 2.70396,8.22925 0.07871,9.63449c-1.10533,0.59168 -1.66308,0.41458 -3.04526,-0.96759l0,0l0,0z" id="svg_30"/>
    <path stroke="null" fill="#D3D3D3" d="m417.78564,204.32928c-4.83727,-2.50921 -5.34752,-4.94582 -1.71059,-8.16479c2.96384,-2.62456 6.70798,-2.90751 10.16647,-0.77013c3.79436,2.34501 3.85746,5.3387 0.1771,8.43485c-2.29752,1.93314 -5.51105,2.11973 -8.63298,0.50008l0,-0.00001z" id="svg_31"/>
    <path stroke="null" fill="#D3D3D3" d="m411.83354,193.01949c-2.24391,-0.97573 -3.30038,-2.94415 -2.66256,-4.956c0.23613,-0.74164 -0.39219,-2.08446 -1.66716,-3.5623c-2.48343,-2.8797 -2.96519,-4.54889 -2.50243,-8.66148c0.41052,-3.64576 2.48886,-5.88221 4.82573,-5.19417c0.7871,0.23206 3.23593,1.61287 5.4398,3.069s4.21641,2.64764 4.47154,2.64764c1.08836,0 2.03831,3.79232 2.03831,8.14308l0,4.68663l-3.15111,2.40608c-3.51412,2.68292 -3.76925,2.73652 -6.79212,1.42152l0,0l0,0z" id="svg_32"/>
    <path stroke="null" fill="#D3D3D3" d="m397.14873,191.7486c-0.82239,-0.86649 -2.56418,-2.79759 -3.87036,-4.29037c-4.18248,-4.78094 -6.26829,-5.92088 -10.5193,-5.74921c-3.37095,0.13639 -3.97349,-0.05835 -5.78178,-1.86664c-2.11024,-2.11024 -2.57707,-4.56314 -1.31636,-6.91765c0.38609,-0.72128 1.14944,-1.31228 1.69633,-1.31228s1.58574,-0.59169 2.3077,-1.31432c1.13315,-1.13248 1.21729,-1.67123 0.60796,-3.90157c-0.42069,-1.54231 -1.63662,-3.36078 -3.01065,-4.50275c-4.35075,-3.61658 -2.47597,-9.2803 3.07172,-9.2803c3.02354,0 6.8369,2.66053 6.8369,4.77009c0,1.26275 0.97845,2.20727 2.53161,2.4434c1.65494,0.25106 4.84812,3.3601 6.32325,6.15769c0.82781,1.56945 2.03357,3.42117 2.67885,4.11395c2.33212,2.50243 2.64017,3.74211 1.64273,6.60755c-1.34418,3.86289 -1.21525,4.75109 1.07208,7.35598c1.11958,1.27497 2.0356,2.79827 2.0356,3.38453c0,1.95146 -1.48667,4.36365 -3.15925,5.12564c-1.4066,0.64053 -1.87275,0.5184 -3.14704,-0.82374l0.00001,0l0,0z" id="svg_33"/>
    <path stroke="null" fill="#D3D3D3" d="m436.08704,184.40483c-1.52263,-1.58437 -2.94619,-3.44084 -3.16333,-4.12684c-0.21713,-0.68531 -1.16707,-2.07563 -2.10956,-3.09004c-2.43864,-2.62253 -4.9655,-7.88184 -4.9655,-10.33406c0,-2.68427 2.64831,-5.42012 5.24642,-5.42012c1.76283,0 4.25304,-1.92771 4.25304,-3.29157c0,-0.60525 -3.29428,-2.38029 -4.41046,-2.3769c-0.3732,0.00136 -2.12517,0.24224 -3.89275,0.53672c-4.10852,0.68193 -6.20722,0.13978 -7.10899,-1.83747c-0.53672,-1.17861 -0.47565,-2.03424 0.24427,-3.40895c0.57268,-1.09243 0.67853,-1.83543 0.26191,-1.83543c-0.38472,0 -1.3116,-0.61068 -2.05731,-1.35707c-1.52466,-1.52534 -1.76826,-4.72394 -0.61204,-8.04129c0.66632,-1.91279 1.02798,-2.1367 3.43813,-2.1367c2.48276,0 2.65578,-0.11943 2.20998,-1.52331c-0.26598,-0.83799 -1.39031,-2.31516 -2.49835,-3.28275c-1.70855,-1.49141 -1.94468,-2.07902 -1.55452,-3.85814c0.54825,-2.49496 1.90735,-3.76178 4.35007,-4.05491c4.23201,-0.50754 4.35551,-1.00559 1.10398,-4.45254l-2.38301,-2.52685l1.37131,-2.68971c0.75453,-1.4792 2.26698,-3.15246 3.3601,-3.71768c1.57963,-0.81696 2.03085,-1.55181 2.19845,-3.57655c0.19677,-2.37962 0.3698,-2.56214 2.6076,-2.7501c2.47597,-0.20899 6.43521,1.86733 7.50051,3.93346c1.50295,2.91633 3.33431,7.30848 3.33431,7.99651c0,1.4541 2.84916,5.89442 5.84353,9.10728c2.19098,2.35044 2.9774,3.74957 2.9774,5.29934c0,1.59591 0.82103,2.97333 3.39267,5.69222c2.9713,3.14161 3.39267,3.94363 3.39267,6.4576c0,3.03847 0.25377,3.36892 6.75615,8.78157c2.4244,2.01864 2.74331,2.62254 2.74331,5.19553c0,2.50515 -0.56522,3.66001 -4.0522,8.27811c-2.22898,2.95162 -4.82437,5.77975 -5.76753,6.28457c-1.12433,0.60186 -1.71533,1.49617 -1.71533,2.59539c0,0.92213 -1.13112,3.16129 -2.51397,4.97433c-2.79352,3.66205 -3.22168,3.87375 -6.09255,3.00455c-1.28989,-0.39084 -1.50906,-0.16014 -1.69633,1.78793c-0.20967,2.18284 -0.29856,2.24187 -3.71904,2.44001c-3.34246,0.19474 -3.63423,0.06989 -6.27304,-2.67614l0,0l0,0z" id="svg_34"/>
    <path stroke="null" fill="#D3D3D3" d="m352.09683,173.64805c0.20763,-0.93299 0.58422,-2.8417 0.83799,-4.24084s0.74096,-2.5445 1.08362,-2.5445c0.97505,0 -0.09025,6.32393 -1.25732,7.46387c-0.93163,0.90991 -1.00152,0.83799 -0.66429,-0.67854l0,0l0,0.00001z" id="svg_35"/>
    <path stroke="null" fill="#D3D3D3" d="m403.44076,144.27977c-2.31108,-1.84832 -3.91649,-4.60249 -3.55212,-6.09323c0.57336,-2.34162 1.53213,-3.21489 3.53109,-3.21489c1.39574,0 2.26494,0.66089 3.64847,2.7752c2.17402,3.32074 2.24595,4.25983 0.46005,6.04573c-1.54638,1.5457 -2.60557,1.67191 -4.08749,0.48719l0,0z" id="svg_36"/>
   </g>
   <path stroke="null" id="CA-YT" fill="#D3D3D3" d="m139.12696,505.23029c-0.724,-0.47701 -3.60641,-1.89583 -6.40536,-3.15247c-4.2734,-1.91889 -19.01386,-9.57003 -43.20493,-22.42688c-7.68981,-4.08613 -35.86184,-21.595 -56.70909,-35.2437c-7.38244,-4.83319 -10.6869,-7.38244 -10.6869,-8.2435c0,-1.71737 2.09463,-5.00825 4.28494,-6.73105c3.93549,-3.09546 1.66308,-5.09307 -6.0722,-5.33802c-1.5328,-0.04817 -2.22694,-0.45122 -2.48614,-1.44392c-0.19813,-0.75656 -0.61543,-1.30753 -0.92756,-1.22271c-1.26953,0.34469 -3.57858,-0.94927 -3.98638,-2.23306c-0.32434,-1.02187 1.28311,-3.9036 6.3185,-11.33082c9.33933,-13.77423 26.60461,-39.34272 39.9439,-59.15453c10.62379,-15.77862 24.35256,-36.1224 42.89212,-63.56093l8.33239,-12.33234l2.15977,0.74435c4.45118,1.53416 5.73903,3.06222 6.24318,7.40348c0.25581,2.20319 1.17794,5.41401 2.04918,7.13545c0.87123,1.72076 1.7825,4.30598 2.02542,5.74379c0.32501,1.9216 1.1759,3.24407 3.20946,4.9845c2.52482,2.16113 2.67817,2.47393 1.75265,3.56434c-1.42492,1.67937 -8.28964,12.86024 -9.89912,16.12331c-0.73621,1.49277 -1.88089,4.39418 -2.54382,6.44606c-0.66293,2.05256 -1.88632,5.10596 -2.71956,6.78533c-2.95909,5.96567 -3.12736,5.51105 4.04338,10.90132c4.93836,3.71226 6.47931,5.24574 6.47931,6.45082c0,0.8692 -1.09244,3.67154 -2.42711,6.22757c-1.58438,3.03305 -2.54993,5.94328 -2.78199,8.3826c-0.34741,3.66137 -0.30466,3.77401 2.1177,5.62165c2.64492,2.01796 2.5384,1.45681 1.77776,9.35087c-0.02375,0.25038 -0.93705,0.65139 -2.02949,0.89091c-2.14756,0.47158 -4.12141,2.88445 -4.12141,5.03743c0,0.73825 -0.61815,2.38912 -1.37268,3.66951c-1.48123,2.50922 -1.1535,4.75584 0.94791,6.49967c0.77421,0.6419 0.97913,1.64137 0.73553,3.57994c-0.2592,2.06274 0.01425,3.183 1.17387,4.81284c1.08294,1.52059 1.53959,3.19521 1.60948,5.89985c0.0536,2.08581 0.629,4.80469 1.28514,6.07287c1.14265,2.2093 1.13451,2.48072 -0.19813,7.11578c-1.77233,6.16312 -2.63407,10.9746 -3.13075,17.47698c-0.21849,2.85595 -0.7335,6.15905 -1.14537,7.34037c-0.66496,1.90872 -0.56047,2.34908 0.94723,3.96671c2.26495,2.4305 2.89734,3.76993 4.23066,8.96003c0.62086,2.41693 1.98199,5.97991 3.0249,7.9178c1.38489,2.573 1.66376,3.61184 1.03341,3.85407c-0.4743,0.18253 -1.01713,1.80286 -1.20576,3.60234c-0.18863,1.79811 -0.56318,4.1248 -0.83256,5.16838c-0.58354,2.26359 0.28363,3.10497 5.78789,5.62097c2.05256,0.93774 4.9058,2.51601 6.34157,3.50666s3.41981,1.81644 4.41047,1.83408l1.80083,0.03189l-0.18931,7.08796c-0.10382,3.89817 -0.27549,7.17345 -0.38066,7.27863c-0.10042,0.10449 -0.77896,-0.20017 -1.50227,-0.67718l-0.00001,0l0.00001,0z"/>
  </g>
  <g id="svg_42" stroke="null">
   <g id="svg_41" transform="matrix(0.22377322244592326,0,0,0.22377322244592326,228.17239411753866,106.00559619352356) " stroke="null">
    <g id="svg_38" stroke="null">
     <path fill="#FFFFFF" d="m1804.26317,1608.95685c13.14,0 23.79,10.54 23.79,23.54s-10.65,23.54 -23.79,23.54c-13.14,0 -23.8,-10.54 -23.8,-23.54s10.66,-23.54 23.8,-23.54z" id="svg_37" stroke="null"/>
    </g>
    <g id="svg_40" stroke="null">
     <path fill="none" stroke-miterlimit="10" d="m1828.05317,1632.49685c0,13 -10.65,23.54 -23.79,23.54c-13.14,0 -23.8,-10.54 -23.8,-23.54s10.66,-23.54 23.8,-23.54c13.14,0 23.79,10.54 23.79,23.54z" id="svg_39" stroke="#273754"/>
    </g>
   </g>
  </g>
  <g id="svg_48" stroke="null">
   <g id="svg_47" transform="matrix(0.22377322244592326,0,0,0.22377322244592326,228.17239411753866,106.00559619352356) " stroke="null">
    <g id="svg_44" stroke="null">
     <path fill="#FFFFFF" d="m70.3649,1707.27069c13.14,0 23.79,10.54 23.79,23.54s-10.65,23.54 -23.79,23.54c-13.14,0 -23.8,-10.54 -23.8,-23.54s10.66,-23.54 23.8,-23.54z" id="svg_43" stroke="null"/>
    </g>
    <g id="svg_46" stroke="null">
     <path fill="none" stroke-miterlimit="10" d="m94.1549,1730.81069c0,13 -10.65,23.54 -23.79,23.54c-13.14,0 -23.8,-10.54 -23.8,-23.54s10.66,-23.54 23.8,-23.54c13.14,0 23.79,10.54 23.79,23.54z" id="svg_45" stroke="#273754"/>
    </g>
   </g>
  </g>
  <g id="svg_54" stroke="null">
   <g id="svg_53" transform="matrix(0.22377322244592326,0,0,0.22377322244592326,228.17239411753866,106.00559619352356) " stroke="null">
    <g id="svg_50" stroke="null">
     <path fill="#FFFFFF" d="m-841.2723,1461.48614c13.14,0 23.79,10.54 23.79,23.54s-10.65,23.54 -23.79,23.54c-13.14,0 -23.8,-10.54 -23.8,-23.54s10.66,-23.54 23.8,-23.54z" id="svg_49" stroke="null"/>
    </g>
    <g id="svg_52" stroke="null">
     <path fill="none" stroke-miterlimit="10" d="m-817.4823,1485.02614c0,13 -10.65,23.54 -23.79,23.54c-13.14,0 -23.8,-10.54 -23.8,-23.54s10.66,-23.54 23.8,-23.54c13.14,0 23.79,10.54 23.79,23.54z" id="svg_51" stroke="#273754"/>
    </g>
   </g>
  </g>
  <text stroke="null" fill="#273754" stroke-width="0" stroke-opacity="null" fill-opacity="null" x="48.5" y="443.666645" id="svg_55" font-size="16" font-family="Helvetica, Arial, sans-serif" text-anchor="start" xml:space="preserve">Whitehorse</text>
  <text fill="#273754" stroke="null" stroke-width="0" stroke-opacity="null" fill-opacity="null" x="252.5" y="497" id="svg_56" font-size="16" font-family="Helvetica, Arial, sans-serif" text-anchor="start" xml:space="preserve">Yellowknife</text>
  <text style="cursor: move;" stroke="null" fill="#273754" stroke-width="0" stroke-opacity="null" fill-opacity="null" x="640.833266" y="474.972117" id="svg_57" font-size="16" font-family="Helvetica, Arial, sans-serif" text-anchor="start" xml:space="preserve">Iqaluit</text>
 </g>
</svg>