<svg width="800" height="600" xmlns="http://www.w3.org/2000/svg">
 <g>
  <title>background</title>
  <rect fill="#efefef" id="canvas_background" height="602" width="802" y="-1" x="-1"/>
 </g>

 <g>
  <title>Layer 1</title>
  <g id="Canada" stroke="null">
   <path d="m625.266781,197.080095c3.629256,5.857255 -2.256024,27.730882 -13.087743,48.595603c-10.803694,20.850709 -21.13096,65.887118 -22.896545,100.091809c-2.858565,55.419726 -24.409902,88.153097 -44.686096,67.876903c-4.035621,-4.035621 -59.847699,-9.612625 -123.983246,-12.373102c-64.135547,-2.746464 -151.307763,-15.203642 -193.681784,-27.660819c-93.870226,-27.590756 -113.123502,-32.24293 -140.12573,-33.896414c-57.115248,-3.48913 -63.098616,-24.087613 -28.459536,-98.017948c18.30042,-39.039029 41.533266,-70.987695 51.636332,-70.987695c10.117078,0 46.94212,27.366555 81.833426,60.814567c51.047804,48.889867 66.503671,57.12926 79.044924,42.037719c9.164223,-11.05592 44.069542,-18.776847 84.84613,-18.776847" fill="#D3D3D3" id="CA-PE_1_" stroke="null"/>
  </g>
  <g stroke="null" id="svg_23">
   <g stroke="null" transform="matrix(0.22377322244592326,0,0,0.22377322244592326,228.17239411753866,106.00559619352356) " id="svg_5">
    <g stroke="null" id="svg_2">
     <path stroke="null" id="svg_1" d="m673.654256,1121.856571c13.14,0 23.79,10.54 23.79,23.54s-10.65,23.54 -23.79,23.54c-13.14,0 -23.8,-10.54 -23.8,-23.54s10.66,-23.54 23.8,-23.54z" fill="#FFFFFF"/>
    </g>
    <g stroke="null" id="svg_4">
     <path stroke="#273754" id="svg_3" d="m697.444256,1145.396571c0,13 -10.65,23.54 -23.79,23.54c-13.14,0 -23.8,-10.54 -23.8,-23.54s10.66,-23.54 23.8,-23.54c13.14,0 23.79,10.54 23.79,23.54z" stroke-miterlimit="10" fill="none"/>
    </g>
   </g>
  </g>
  <text xml:space="preserve" text-anchor="start" font-family="Helvetica, Arial, sans-serif" font-size="10" id="svg_7" y="366" x="387.5" fill-opacity="null" stroke-opacity="null" stroke-width="0" stroke="null" fill="#273754">Charlottetown</text>
 </g>
</svg>