<svg width="800" height="600" xmlns="http://www.w3.org/2000/svg">
 <g>
  <title>background</title>
  <rect fill="#efefef" id="canvas_background" height="246.89573" width="328.52764" y="-1" x="-1"/>
 </g>

 <g>
  <title>Layer 1</title>
  <g stroke="null" id="Canada">
   <g stroke="null" id="CA-NS">
    <path stroke="null" id="svg_1" d="m206.891292,554.881603c-24.862627,-5.702928 -36.947267,-20.589148 -47.007167,-57.930928c-4.921481,-18.271911 -5.721169,-28.825709 -2.80316,-36.963088c6.240115,-17.379279 34.407834,-61.44285 52.898482,-82.730776c9.090066,-10.463633 19.094668,-22.915401 22.233867,-27.662582s10.527802,-9.913627 16.423371,-11.482496c12.088894,-3.218886 49.027654,-29.587602 49.027654,-35.002002c0,-4.693081 -19.08616,3.15577 -41.715617,17.153866c-39.329315,24.326482 -33.812322,-15.183764 9.383568,-67.19086c18.988326,-22.865811 23.492949,-26.017073 36.564438,-25.584282c40.5331,1.356981 86.051487,-6.311541 100.909512,-17.000586c9.226183,-6.636134 17.729244,-9.620592 21.953125,-7.70008c3.794262,1.722149 15.755547,3.475856 26.585358,3.890614c22.425281,0.861074 40.13751,11.306675 47.249625,27.851928c4.534399,10.553798 2.969053,13.357925 -22.527369,40.339762c-15.070708,15.950165 -30.269025,32.220416 -33.778293,36.160621c-15.121752,16.96452 -52.536921,47.160735 -61.324977,49.496005c-5.614828,1.492229 -14.70064,11.834139 -21.974394,25.011735c-11.391294,20.629722 -13.501108,22.297772 -25.709105,20.363736c-11.008465,-1.74469 -14.126396,-0.193854 -18.078044,8.998454c-2.62876,6.10867 -4.776857,13.186612 -4.776857,15.720245s-5.759452,19.268233 -12.799255,37.193009c-9.668563,24.624026 -19.592346,39.96107 -40.618174,62.799831c-15.304659,16.626402 -28.206002,29.943753 -28.673904,29.596618c-0.467902,-0.33361 -10.119451,-2.736504 -21.442686,-5.328744l0.000002,0z" fill="#D3D3D3"/>
    <path stroke="null" id="svg_2" d="m493.230487,212.435431c-3.568818,-3.020523 -15.776815,-16.125987 -27.138334,-29.123253c-15.14302,-17.329688 -19.486004,-25.146982 -16.291507,-29.303582c2.394809,-3.119704 10.268329,-24.452712 17.491039,-47.408688c14.645342,-46.525072 28.452714,-77.735642 34.395073,-77.735642c7.516212,0 17.167761,20.14734 17.227312,35.944225c0.09358,25.706004 4.126048,35.200365 16.295761,38.387693c14.819742,3.877089 34.688575,24.182218 34.688575,35.44381c0,4.900461 -5.942359,18.718227 -13.203352,30.714663c-9.574983,15.819426 -15.921439,21.806374 -23.105866,21.806374c-6.146535,0 -13.347977,5.130381 -18.988326,13.52473c-10.076914,14.998926 -11.99106,15.693195 -21.370374,7.74967l-0.000001,0z" fill="#D3D3D3"/>
   </g>
  </g>
  <g stroke="null" id="svg_23">
   <g stroke="null" transform="matrix(0.22377322244592326,0,0,0.22377322244592326,228.17239411753866,106.00559619352356) " id="svg_7">
    <g stroke="null" id="svg_4">
     <path stroke="null" id="svg_3" d="m575.795034,1198.205075c13.14,0 23.79,10.54 23.79,23.54s-10.65,23.54 -23.79,23.54c-13.14,0 -23.8,-10.54 -23.8,-23.54s10.66,-23.54 23.8,-23.54z" fill="#FFFFFF"/>
    </g>
    <g stroke="null" id="svg_6">
     <path stroke="#273754" id="svg_5" d="m599.585034,1221.745075c0,13 -10.65,23.54 -23.79,23.54c-13.14,0 -23.8,-10.54 -23.8,-23.54s10.66,-23.54 23.8,-23.54c13.14,0 23.79,10.54 23.79,23.54z" stroke-miterlimit="10" fill="none"/>
    </g>
   </g>
  </g>
  <text xml:space="preserve" text-anchor="start" font-family="Helvetica, Arial, sans-serif" font-size="10" id="svg_9" y="383.050742" x="364.067682" fill-opacity="null" stroke-opacity="null" stroke-width="0" stroke="null" fill="#273754">Halifax</text>
 </g>
</svg>